<svg width="200" height="200" viewBox="0 0 200 200" fill="none" xmlns="http://www.w3.org/2000/svg" id="Scribble-38.svg" onclick="copyToClipboard(this)">
<path d="M56.5378 34.5437C97.1551 31.0809 137.919 23.2647 178.006 22.8699C177.443 20.7155 176.879 18.5722 176.315 16.4178C172.762 18.3579 167.471 19.9369 161.053 21.1438C154.624 22.362 147.055 23.2305 138.821 23.9637C122.342 25.4413 103.223 26.3661 84.8379 28.6446C66.4524 30.9343 48.8 34.4986 35.0277 41.616C28.1472 45.1803 22.2144 49.6698 17.8154 55.4449C13.4164 61.1974 10.6416 68.2246 10.0438 76.4022C9.82949 78.9965 10.4047 81.5792 11.7018 83.6998C12.9764 85.8429 14.8601 87.501 17.0257 88.7981C21.3796 91.3698 27.0081 92.7462 33.6855 93.5809C47.0179 95.2051 64.6815 94.4264 83.1234 92.8698C101.532 91.302 120.684 88.9223 136.611 87.2191C144.574 86.3618 151.736 85.6849 157.545 85.3465C163.332 85.0081 167.877 85.0757 170.043 85.5156C169.908 82.8649 169.761 80.2032 169.626 77.5412C121.88 91.7872 68.4489 92.1822 17.9281 93.8177C15.8302 93.8854 14.0141 95.5435 13.7547 97.5512C13.4163 99.5477 14.6909 101.657 16.6761 102.322C40.442 110.342 66.7794 110.297 92.9704 108.413C119.161 106.507 145.296 102.728 168.419 102.774C168.419 99.7168 168.419 96.6602 168.419 93.6034C148.691 93.5922 124.011 89.3619 99.4561 87.4895C74.8894 85.6622 50.2777 86.0346 30.2115 96.3666C28.7339 97.1223 27.7751 98.6226 27.6623 100.213C27.527 101.803 28.2601 103.428 29.6137 104.42C52.0936 120.685 78.183 129.258 104.994 133.792C131.806 138.315 159.395 138.834 185.124 138.856C184.616 135.687 184.12 132.518 183.612 129.348C162.508 136.285 137.919 134.04 112.946 132.416C100.46 131.626 87.8721 131.04 75.5323 132.055C63.2039 133.07 51.0672 135.732 39.6974 141.53C37.8814 142.455 36.8212 144.463 37.0355 146.403C37.2047 148.343 38.6372 150.102 40.5999 150.655C58.4665 155.708 79.1193 156.621 99.8171 154.433C127.192 151.523 154.613 143.087 175.536 130.893C177.16 129.946 178.074 128.096 177.86 126.325C177.691 124.554 176.427 122.941 174.69 122.377C155.03 115.914 126.459 114.504 98.8809 118.52C71.359 122.603 44.8748 132.044 30.0084 148.501C29.185 149.414 28.9482 150.7 29.3543 151.782C29.7265 152.865 30.7303 153.712 31.8696 153.881C68.9565 159.397 97.5161 175.616 134.626 183.422C135.55 183.613 136.419 182.959 136.622 182.068C136.825 181.177 136.306 180.229 135.393 180.004C99.1742 171.364 71.2461 154.309 32.9185 147.497C33.5388 149.29 34.1592 151.083 34.7796 152.877C48.0894 138.676 73.4457 129.946 99.9976 126.629C126.504 123.257 154.241 125.242 171.69 131.277C171.419 128.434 171.137 125.592 170.855 122.749C151.251 133.894 124.857 141.868 98.7793 144.62C79.0628 146.718 59.5155 145.771 43.2844 141.169C43.5776 144.214 43.8822 147.26 44.1755 150.305C54.0789 145.252 64.8619 142.816 76.3444 141.857C87.8157 140.898 99.9524 141.428 112.326 142.207C137.073 143.718 162.802 146.357 186.635 138.608C188.891 137.875 190.346 135.484 189.929 133.217C189.624 130.938 187.504 129.111 185.124 129.111C159.53 129.134 132.46 128.626 106.585 124.295C80.7097 119.964 56.0978 111.82 35.1744 96.7279C34.9713 99.4124 34.7797 102.097 34.5767 104.781C51.6989 95.8026 74.7653 94.9903 98.7567 96.7951C122.759 98.5547 147.484 102.774 168.419 102.774C168.419 99.7168 168.419 96.6602 168.419 93.6034C144.315 93.6486 118.079 97.5399 92.3162 99.48C66.5426 101.431 41.3218 101.386 19.4621 94.0429C19.0561 96.8854 18.6388 99.7166 18.2214 102.548C68.5843 100.732 122.726 100.269 171.983 85.4143C173.81 84.8728 175.051 83.0682 174.916 81.2522C174.837 79.4249 173.404 77.7783 171.577 77.4399C167.934 76.7857 163.163 76.8418 157.072 77.1915C151.015 77.5524 143.762 78.2743 135.742 79.1654C119.714 80.9363 100.64 83.3838 82.4354 84.9968C64.2416 86.621 46.8712 87.3884 34.6104 85.9221C28.4969 85.2114 23.6806 83.8802 20.9397 82.2221C19.5636 81.3987 18.7176 80.5641 18.2439 79.7745C17.7814 78.9737 17.5559 78.1957 17.6349 76.9662C18.1312 70.1309 20.2968 64.6713 23.816 59.9903C27.3465 55.3319 32.3094 51.4521 38.468 48.2261C50.7739 41.763 67.7496 38.131 85.7516 35.8413C103.754 33.5403 122.793 32.5251 139.464 30.9798C147.8 30.1902 155.56 29.2767 162.35 27.9683C169.152 26.6486 174.995 24.9678 179.608 22.4524C180.995 21.6967 181.706 20.0271 181.289 18.5608C180.928 17.0832 179.495 15.9778 177.927 16.0003C137.006 16.5756 96.14 24.6179 55.9851 28.1935C54.2368 28.3401 52.9508 29.8968 53.1087 31.6451C53.2554 33.3821 54.7894 34.6904 56.5378 34.5437Z" fill="black"/>
</svg>