<svg width="200" height="200" viewBox="0 0 200 200" fill="none" xmlns="http://www.w3.org/2000/svg" id="Scribble-8.svg" onclick="copyToClipboard(this)">
<path d="M92.9723 187.163C69.8881 169.047 56.2037 148.343 49.7309 127.756C43.2609 107.166 44 86.6622 49.891 68.9062C55.7795 51.1475 66.8253 36.161 80.9073 26.6066C87.9484 21.8254 95.7445 18.3971 104.058 16.6255C112.372 14.8539 121.203 14.7364 130.357 16.6067C135.811 17.7193 140.133 19.0508 143.42 20.5262C146.715 21.999 148.948 23.6104 150.341 25.2086C151.734 26.8201 152.363 28.3756 152.542 30.1899C152.708 31.9988 152.342 34.1253 151.39 36.5719C150.442 39.0105 148.919 41.7373 146.921 44.6588C144.925 47.583 142.46 50.7047 139.661 53.9838C134.066 60.5472 127.134 67.7296 119.922 75.3683C112.708 83.0096 105.211 91.1072 98.4552 99.565C91.6997 108.025 85.6778 116.843 81.4463 125.992C77.2254 135.133 74.7842 144.661 75.4192 154.397C76.0382 164.127 79.8134 173.953 87.5055 183.385C88.7594 184.922 91.0273 185.141 92.5588 183.881C94.0929 182.625 94.3196 180.359 93.055 178.833C89.5732 174.628 87.0518 170.456 85.3176 166.315C83.5833 162.171 82.6309 158.054 82.3241 153.919C81.7104 145.659 83.6981 137.246 87.5268 128.77C91.3475 120.299 96.9984 111.814 103.487 103.551C109.973 95.2854 117.289 87.2358 124.408 79.5678C131.526 71.8944 138.444 64.6053 144.162 57.7884C147.019 54.3786 149.578 51.0862 151.715 47.9005C153.85 44.7148 155.565 41.6358 156.715 38.6129C157.857 35.5927 158.441 32.5965 158.151 29.6509C157.87 26.7107 156.643 23.8853 154.517 21.5161C152.39 19.1361 149.445 17.1724 145.643 15.5048C141.835 13.84 137.145 12.4659 131.411 11.3454C111.635 7.46865 93.095 12.2018 78.1352 22.5619C63.162 32.9247 51.6973 48.8637 45.6782 67.5295C39.6643 86.198 39.1067 107.617 46.0117 128.94C52.914 150.266 67.2761 171.467 90.9766 189.732C92.3986 190.829 94.3863 188.273 92.9723 187.163Z" fill="black"/>
<path d="M73.373 99.2583C71.3666 97.1665 70.2274 94.7039 69.7658 91.8757C69.3122 89.0556 69.5684 85.8699 70.4542 82.5001C72.2124 75.7606 76.4894 68.3326 82.0577 61.7692C87.6152 55.1977 94.4614 49.4855 101.198 46.0517C104.565 44.3334 107.898 43.1835 110.993 42.7352C114.093 42.287 116.935 42.5298 119.453 43.525C120.006 43.7437 120.39 43.9812 120.651 44.2027C120.915 44.4294 121.062 44.6295 121.169 44.843C121.276 45.0591 121.342 45.3019 121.369 45.622C121.393 45.9449 121.366 46.3451 121.268 46.8147C121.075 47.7565 120.582 48.9652 119.835 50.2779C119.088 51.5905 118.101 53.0127 116.977 54.4454C114.725 57.3163 111.932 60.2377 109.435 62.6683C106.932 65.1043 104.736 67.0466 103.624 68.0498C97.0416 73.9676 89.6963 78.9222 82.6392 84.4638C75.5929 90.008 68.8134 96.1739 63.6187 104.576C62.8049 105.888 63.2317 107.617 64.5498 108.423C65.8705 109.229 67.602 108.815 68.3971 107.489C72.9808 99.8559 79.1254 94.0475 85.9103 88.57C92.6846 83.0898 100.083 77.9724 106.921 71.6705C108.002 70.6726 110.246 68.6316 112.799 66.0782C115.358 63.5222 118.237 60.4431 120.649 57.2841C121.855 55.7046 122.946 54.1012 123.826 52.5057C124.701 50.9049 125.376 49.3174 125.694 47.6979C125.851 46.8868 125.915 46.065 125.841 45.2352C125.766 44.4108 125.544 43.5783 125.147 42.8073C124.749 42.0362 124.176 41.3425 123.477 40.7742C122.78 40.2032 121.961 39.755 121.046 39.4055C117.666 38.1195 114.016 37.9113 110.345 38.4956C106.668 39.0799 102.949 40.4461 99.2907 42.3724C91.9802 46.2331 84.8992 52.343 79.1335 59.3253C73.3785 66.3157 68.9388 74.1677 67.0765 81.6409C66.1507 85.3789 65.8704 89.0315 66.4628 92.4333C67.0497 95.8298 68.5412 98.9701 71.0626 101.515C72.3166 102.783 74.6083 100.547 73.373 99.2583Z" fill="black"/>
<path d="M92.6316 70.9661C97.9064 64.0077 103.178 57.0494 108.451 50.0884C108.728 49.7202 108.656 49.1946 108.288 48.9145C107.917 48.6344 107.391 48.709 107.111 49.0772C101.847 56.0435 96.583 63.0072 91.3162 69.9709C90.7692 70.6993 92.082 71.6944 92.6316 70.9661Z" fill="black"/>
</svg>