<svg width="200" height="200" viewBox="0 0 200 200" fill="none" xmlns="http://www.w3.org/2000/svg" id="Scribble-39.svg" onclick="copyToClipboard(this)">
<path d="M106.494 99.0321C104.692 97.6805 102.611 95.1649 100.419 92.32C98.2175 89.4752 95.8789 86.3014 93.358 83.578C90.822 80.8598 88.124 78.5362 84.9754 77.5289C83.4062 77.0328 81.7155 76.9013 80.0096 77.281C78.3038 77.6556 76.608 78.5262 74.9578 79.9081C70.5539 83.5831 67.5522 88.5994 65.7197 94.2131C63.8873 99.8319 63.209 106.073 63.4469 112.33C63.6899 118.586 64.8542 124.863 66.7575 130.573C68.6658 136.283 71.3082 141.426 74.5984 145.42C79.2402 151.079 84.7476 153.969 90.3917 154.526C96.0409 155.098 101.665 153.453 106.904 150.669C117.372 145.071 126.534 134.896 131.905 126.463C140.566 112.765 143.78 94.6231 139.994 78.8905C138.085 71.0293 134.375 63.7451 128.579 58.096C122.788 52.4468 114.917 48.5138 105.107 47.2938C94.8057 46.0081 84.1402 48.3924 74.5225 53.2063C64.9048 58.0303 56.2994 65.3043 50.1187 74.0463C43.0826 83.9931 39.1596 95.9544 40.906 108.24C42.3335 118.273 46.2109 126.832 51.7031 133.519C57.1954 140.211 64.2872 145.03 72.0927 147.662C79.8983 150.295 88.4226 150.75 96.7596 148.746C105.097 146.741 113.231 142.271 120.252 135.169C130.558 124.732 138.394 111.424 141.538 97.2352C144.681 83.0668 143.011 67.9162 134.193 54.4767C127.962 44.9197 119.493 38.9618 110.113 36.0006C100.723 33.0241 90.4727 32.9431 80.2931 34.7148C59.9238 38.2936 39.681 49.2074 26.4035 60.8296C24.7381 62.2925 23.1233 64.2008 21.5288 66.4534C19.9394 68.706 18.3854 71.3028 16.9529 74.1173C14.0827 79.7512 11.6833 86.2508 10.595 92.5833C10.0584 95.7521 9.84586 98.8853 10.1192 101.877C10.3976 104.869 11.1619 107.739 12.6603 110.265C14.1485 112.79 16.4163 114.922 19.337 116.273C22.2578 117.635 25.7758 118.257 29.8912 118.141C31.6527 118.095 33.3485 117.518 34.7506 116.587C36.1629 115.656 37.3069 114.416 38.289 112.998C40.2429 110.158 41.64 106.554 42.9005 102.363C45.3859 93.9955 47.2233 83.1982 49.6986 72.2796C52.1587 61.3711 55.2668 50.3765 60.0098 41.8977C62.3738 37.6558 65.1275 34.0568 68.3418 31.3385C71.5713 28.6203 75.2362 26.7474 79.6655 25.892C86.489 24.586 92.3608 24.8947 97.3519 26.3374C102.343 27.7902 106.484 30.3767 109.84 33.7986C116.542 40.6221 120.065 50.9486 119.776 61.7609C119.498 72.5632 115.438 83.7248 107.375 92.1834C99.3008 100.632 87.2533 106.549 70.3362 106.812C60.1364 106.964 52.584 105.689 47.3853 103.542C44.7835 102.474 42.7688 101.204 41.2401 99.8015C39.7114 98.3943 38.6484 96.8656 37.9346 95.18C36.5173 91.8239 36.4616 87.6327 37.8334 82.7429C39.1951 77.8733 41.9741 72.4112 45.8617 66.8481C53.6318 55.7017 65.8008 44.1505 79.3466 35.1706C92.8822 26.1755 107.815 19.7669 120.88 18.5469C129.809 17.6915 142.793 17.7625 154.142 20.5871C159.822 21.9943 165.076 24.0847 169.237 26.9649C173.408 29.8604 176.465 33.4596 178.11 38.1166C179.938 43.3405 179.356 49.0806 176.88 54.9525C174.41 60.7991 170.037 66.6458 164.676 71.652C159.325 76.6634 152.998 80.8343 146.752 83.4666C140.51 86.1089 134.375 87.1619 129.475 86.2761C126.747 85.7901 124.641 84.8586 122.991 83.6438C121.341 82.4238 120.126 80.9102 119.25 79.1335C117.504 75.6053 117.22 70.9232 118.369 66.2712C119.503 61.6243 122.049 57.0889 125.527 53.8998C129.025 50.7007 133.317 48.8125 138.379 49.0403C144.048 49.3035 150.158 51.3383 155.995 54.7095C161.826 58.0707 167.369 62.753 171.94 68.1541C176.516 73.5502 180.105 79.6599 182.13 85.8203C184.154 91.9908 184.615 98.1716 183.086 103.881C181.31 110.589 177.042 117.964 171.095 125.04C165.157 132.122 157.564 138.915 149.283 144.615C141.001 150.32 132.021 154.926 123.355 157.7C114.684 160.489 106.347 161.411 99.3666 159.988C96.5825 159.426 94.4312 158.571 92.8113 157.574C91.1865 156.571 90.088 155.437 89.3237 154.207C88.5644 152.972 88.129 151.621 87.9822 150.117C87.8354 148.619 87.9924 146.969 88.4479 145.258C89.3439 141.836 91.4547 138.186 94.3198 135.149C97.1849 132.107 100.784 129.682 104.504 128.493C107.982 127.354 113.702 126.919 119.913 127.425C125.026 127.825 130.508 128.862 135.504 130.502C140.505 132.132 145.025 134.375 148.22 136.987C149.819 138.288 151.09 139.67 151.976 141.072C152.866 142.479 153.388 143.886 153.565 145.374C153.742 146.868 153.585 148.467 152.942 150.33C152.299 152.188 151.145 154.293 149.308 156.632C143.74 163.744 137.959 168.771 132.153 172.188C126.342 175.594 120.495 177.427 114.573 178.07C103.178 179.279 91.3737 175.832 80.0501 169.626C70.9993 164.67 62.1106 158.105 54.4619 150.451C53.2319 149.216 51.04 151.054 52.0423 152.481C58.4254 161.578 66.5144 170.107 76.0056 176.333C87.8303 184.083 101.614 188.492 115.519 187.039C122.722 186.3 129.921 183.921 136.709 179.684C143.497 175.447 149.865 169.378 155.61 161.34C157.746 158.353 159.229 155.443 160.08 152.583C160.925 149.733 161.112 146.923 160.672 144.306C160.237 141.689 159.179 139.3 157.721 137.215C156.263 135.119 154.41 133.312 152.31 131.732C148.108 128.579 142.899 126.286 137.357 124.61C131.814 122.935 125.937 121.897 120.384 121.452C113.621 120.93 107.39 121.29 102.672 122.788C97.7974 124.357 93.439 127.354 89.9564 131.044C86.4839 134.739 83.8719 139.138 82.652 143.729C82.0445 146.022 81.7965 148.371 82.0142 150.69C82.2369 153.008 82.9455 155.296 84.2262 157.361C85.5018 159.426 87.3343 161.244 89.6678 162.676C92.0065 164.114 94.8361 165.187 98.177 165.865C106.56 167.551 115.838 166.402 125.183 163.415C134.532 160.413 143.973 155.549 152.679 149.561C161.386 143.567 169.348 136.455 175.691 128.898C182.028 121.335 186.771 113.342 188.892 105.43C190.775 98.364 190.148 90.9786 187.839 83.9475C185.521 76.9064 181.532 70.1841 176.531 64.2667C171.52 58.3543 165.486 53.2467 159.002 49.4958C152.512 45.755 145.557 43.3608 138.668 43.0268C131.854 42.6876 125.886 45.3654 121.447 49.4706C116.992 53.5809 113.935 59.0881 112.518 64.8335C111.115 70.5737 111.323 76.6228 113.839 81.791C115.094 84.3625 116.952 86.6859 119.412 88.4981C121.862 90.3103 124.894 91.5961 128.422 92.2187C134.957 93.3627 142.11 91.9606 149.1 89.0298C156.091 86.0786 162.94 81.543 168.807 76.0659C174.663 70.5838 179.538 64.1603 182.448 57.3115C183.901 53.8845 184.853 50.3512 185.141 46.7775C185.43 43.2038 185.045 39.5945 183.825 36.117C181.72 30.0831 177.66 25.416 172.684 21.984C167.698 18.5368 161.78 16.2438 155.605 14.705C143.249 11.6476 129.794 11.6172 120.308 12.503C105.755 13.895 90.1285 20.7338 75.9803 30.1034C61.8423 39.4883 49.2076 51.4193 40.8605 63.3554C36.6894 69.3336 33.5814 75.3118 31.9565 81.0925C30.3367 86.853 30.1898 92.5224 32.3057 97.554C33.3586 100.055 34.9734 102.348 37.1095 104.307C39.2507 106.266 41.9083 107.901 45.0619 109.197C51.3741 111.788 59.6859 113.074 70.4223 112.932C88.7314 112.694 102.616 106.099 111.819 96.4101C121.032 86.7317 125.593 74.1273 125.917 61.9179C126.23 49.7186 122.333 37.7875 114.239 29.491C110.194 25.3553 105.087 22.1662 99.0679 20.4249C93.0493 18.6735 86.1447 18.375 78.5062 19.8379C73.014 20.8807 68.2912 23.3002 64.3631 26.631C60.4198 29.9618 57.2511 34.1782 54.6188 38.8909C49.3645 48.3264 46.1957 59.7969 43.6698 70.913C41.154 82.024 39.2963 92.811 36.9678 100.591C35.8187 104.474 34.5229 107.587 33.2017 109.475C32.5437 110.421 31.9058 111.049 31.349 111.414C30.7821 111.778 30.3265 111.92 29.714 111.95C26.3124 112.046 23.7916 111.515 21.9591 110.66C20.1267 109.789 18.9118 108.63 17.9905 107.101C17.0794 105.572 16.5023 103.613 16.2897 101.31C16.0771 99.0118 16.234 96.3848 16.7098 93.6261C17.6463 88.1085 19.8533 82.0847 22.4805 76.9367C23.7915 74.3601 25.2089 72.0012 26.6009 70.0321C27.9879 68.0681 29.3648 66.4837 30.4987 65.4966C42.8549 54.6286 62.4396 44.11 81.3561 40.845C90.822 39.1948 100.08 39.3415 108.225 41.9382C116.38 44.5451 123.472 49.5009 128.979 57.8886C136.774 69.8348 138.263 83.0312 135.443 95.8886C132.619 108.726 125.375 121.118 115.808 130.781C109.561 137.098 102.485 140.94 95.2967 142.671C88.1138 144.397 80.7993 144.008 74.0922 141.74C67.3851 139.477 61.2854 135.342 56.5323 129.556C51.7842 123.765 48.3724 116.324 47.0968 107.359C45.6187 96.9821 48.8989 86.61 55.2212 77.6554C60.759 69.8094 68.6101 63.1377 77.3116 58.749C86.0081 54.3552 95.5144 52.2596 104.368 53.3276C113.019 54.3755 119.549 57.6507 124.464 62.3482C129.369 67.0558 132.669 73.2717 134.436 80.2623C137.994 94.2333 135.225 111.211 127.486 123.694C122.662 131.535 113.925 141.381 104.631 146.463C99.9841 149.024 95.2613 150.386 90.827 149.991C86.3928 149.586 82.08 147.546 77.8988 142.661C74.9932 139.249 72.4572 134.562 70.5995 129.257C68.7367 123.957 67.537 118.035 67.2181 112.153C66.8941 106.271 67.4509 100.429 69.0454 95.266C70.6349 90.1028 73.2469 85.6332 77.0383 82.3632C78.3594 81.2192 79.5743 80.6066 80.7082 80.3332C81.8421 80.0649 82.9304 80.1206 84.0795 80.4598C86.3624 81.1178 88.8377 83.0413 91.2422 85.5672C93.6567 88.083 96.0155 91.1608 98.2884 94.0005C100.571 96.8403 102.738 99.4472 104.97 101.087C106.109 101.922 107.623 99.8825 106.494 99.0321Z" fill="black"/>
</svg>