<svg width="200" height="200" viewBox="0 0 200 200" fill="none" xmlns="http://www.w3.org/2000/svg" id="Scribble-5.svg" onclick="copyToClipboard(this)">
<path d="M106.02 83.3274C103.339 85.1728 100.335 86.9605 98.043 89.4017C96.8993 90.6272 95.9381 92.0304 95.3519 93.6884C94.7608 95.3463 94.5685 97.2445 94.9001 99.3589C95.2413 101.555 95.8084 103.343 96.6157 104.78C97.4135 106.217 98.4707 107.303 99.7153 107.98C100.955 108.658 102.339 108.908 103.704 108.831C105.074 108.759 106.434 108.374 107.76 107.793C110.408 106.62 112.94 104.65 115.079 102.362C117.213 100.07 118.947 97.4751 119.884 94.9138C120.898 92.0881 121.389 88.2532 120.778 84.6345C120.466 82.8324 119.865 81.0688 118.789 79.5599C117.727 78.0509 116.117 76.8302 114.094 76.3352C113.469 76.1815 112.811 76.095 112.123 76.0758C109.653 76.0037 107.375 76.7197 105.376 77.8538C103.372 78.988 101.618 80.5258 100.037 82.2126C96.88 85.5957 94.3907 89.5844 92.1754 92.4197C91.6371 93.1117 91.0989 93.7989 90.5559 94.4909C90.2099 94.9378 90.9115 95.577 91.3199 95.1829C91.9543 94.5774 92.5886 93.9719 93.2229 93.3616C95.8997 90.7905 98.9368 87.196 102.161 84.4135C103.771 83.0199 105.42 81.8329 107.058 81.0448C108.707 80.2566 110.312 79.8578 111.994 79.9299C112.431 79.9491 112.815 80.002 113.161 80.0885C114.267 80.3768 115.007 80.9294 115.656 81.804C116.295 82.6787 116.761 83.9041 117.016 85.3025C117.539 88.0946 117.16 91.5258 116.405 93.6787C115.752 95.6154 114.305 97.9461 112.484 99.9933C110.662 102.041 108.462 103.819 106.39 104.799C105.362 105.289 104.367 105.582 103.488 105.659C102.608 105.736 101.849 105.606 101.157 105.26C100.46 104.914 99.7922 104.323 99.1675 103.3C98.5476 102.281 97.9997 100.834 97.6297 98.8928C97.3029 97.182 97.4038 95.7788 97.7979 94.5101C98.192 93.2414 98.8936 92.0977 99.8307 91.0116C101.7 88.8347 104.526 86.9605 107.198 84.9758C108.096 84.3126 106.943 82.6931 106.02 83.3274Z" fill="black"/>
<path d="M105.005 58.5013C99.2531 59.8709 92.703 64.1047 86.6335 69.8137C80.5689 75.5276 75.0087 82.712 71.3421 90.0886C67.6946 97.4604 65.8733 105.044 67.6802 111.661C68.5836 114.958 70.453 117.971 73.3844 120.374C76.3111 122.781 80.2661 124.583 85.3408 125.665C91.8236 127.044 99.0272 126.15 105.981 123.675C112.93 121.195 119.643 117.115 125.141 111.964C130.634 106.812 134.93 100.57 136.9 93.7024C138.88 86.8496 138.424 79.3192 134.464 72.1396C131.648 66.9496 127.308 63.8019 122.411 62.5236C117.49 61.2165 112.07 61.6682 106.601 63.1147C101.132 64.566 95.5912 67.0313 90.3579 69.9194C79.8961 75.691 70.6597 83.1252 65.8396 87.508C65.6234 87.705 65.9405 88.0895 66.176 87.9165C71.3709 84.0528 81.2849 77.6805 91.8476 72.8749C97.1242 70.4721 102.564 68.4585 107.634 67.3292C112.709 66.1951 117.389 65.9789 121.224 66.9976C125.045 68.0405 128.096 70.1885 130.437 74.355C133.815 80.4918 134.219 86.5709 132.599 92.4914C130.97 98.3927 127.217 104.083 122.219 108.888C117.226 113.689 111.017 117.596 104.631 119.989C98.2487 122.392 91.7034 123.267 86.052 122.171C81.3714 121.267 77.9258 119.73 75.4653 117.788C73.0048 115.847 71.4911 113.511 70.6693 110.801C69.021 105.404 70.3665 98.3446 73.7112 91.2275C77.0367 84.1104 82.2796 76.9645 88.0367 71.2698C93.7891 65.5704 100.07 61.3318 105.366 59.943C105.75 59.8421 105.952 59.424 105.861 59.0539C105.765 58.6791 105.39 58.4052 105.005 58.5013Z" fill="black"/>
<path d="M108.62 39.4522C80.6269 45.6995 59.5879 69.939 54.4555 93.6932C51.8989 105.568 53.331 117.452 60.1693 126.77C66.9981 136.088 79.1275 142.547 97.1053 143.854C106.577 144.556 115.035 141.672 121.979 136.55C128.942 131.427 134.44 124.122 138.376 115.876C142.307 107.629 144.676 98.4268 145.301 89.4114C145.921 80.3961 144.811 71.5489 141.629 64.0185C139.827 59.7367 137.314 55.8875 134.056 52.7686C130.807 49.6498 126.804 47.2854 122.152 45.9591C117.496 44.6279 112.209 44.3251 106.327 45.2142C100.445 46.0984 93.9624 48.1601 86.8309 51.572C86.2206 51.8604 86.1196 52.6966 86.3647 53.254C86.6146 53.8115 87.297 54.3016 87.9217 54.0517C95.0629 51.1779 101.353 49.6258 106.808 49.1164C112.272 48.607 116.89 49.1356 120.783 50.4235C124.68 51.7162 127.866 53.7538 130.514 56.3968C133.157 59.0399 135.257 62.2982 136.848 66.0417C139.635 72.6158 140.726 80.6988 140.183 89.0702C139.645 97.4368 137.482 106.082 133.902 113.766C130.317 121.455 125.319 128.173 119.187 132.796C113.041 137.424 105.813 140.005 97.3888 139.534C80.2328 138.525 69.3192 132.744 63.0719 124.593C56.8295 116.438 55.1571 105.63 57.3436 94.2843C61.6927 71.597 81.5351 47.295 108.874 40.5287C109.163 40.4566 109.321 40.1491 109.254 39.8703C109.187 39.5916 108.908 39.385 108.62 39.4522Z" fill="black"/>
<path d="M81.4241 28.7163C65.8588 35.1463 53.7005 47.785 45.6367 62.8794C37.5729 77.9739 33.5795 95.5288 34.3195 111.935C35.0692 128.317 40.5572 143.657 51.7735 154.013C57.3768 159.179 64.4074 163.048 72.8173 165.09C81.2319 167.137 91.0113 167.368 102.17 165.378C114.194 163.24 124.242 159.227 132.436 153.821C140.634 148.419 146.953 141.624 151.538 134.022C160.712 118.798 162.956 100.483 160.241 83.236C157.896 68.3483 151.879 54.1813 143.167 43.2629C138.808 37.8086 133.772 33.1664 128.173 29.7015C122.575 26.2367 116.409 23.954 109.888 23.2572C102.598 22.4546 94.8798 23.7954 87.311 27.5726C79.7278 31.345 72.3031 37.5106 65.1715 46.2809C65.0514 46.4299 65.2821 46.6461 65.4214 46.5164C73.7255 38.885 81.65 34.0506 88.9497 31.3306C96.2638 28.6203 102.958 27.9859 109.215 28.8172C114.814 29.5861 120.076 31.6622 124.953 34.8003C129.831 37.9431 134.305 42.1528 138.231 47.1651C146.088 57.1848 151.706 70.4002 153.878 84.2404C156.396 100.291 154.296 117.077 146.146 130.792C142.066 137.66 136.472 143.796 129.081 148.794C121.69 153.782 112.478 157.636 101.142 159.833C90.6364 161.861 81.6355 161.76 73.9994 160.049C66.3633 158.329 60.0776 155.013 54.9644 150.486C44.7429 141.456 39.1636 127.385 38.0967 111.719C37.0155 96.067 40.4418 78.9254 47.9146 64.0568C55.3873 49.1835 66.8727 36.5832 81.9287 29.8938C82.2266 29.764 82.2843 29.3651 82.169 29.0912C82.0536 28.8221 81.7221 28.5914 81.4241 28.7163Z" fill="black"/>
<path d="M62.7058 20.8977C38.5912 39.3128 24.5012 60.9429 18.4797 82.5441C12.4583 104.14 14.5199 125.679 22.5934 143.753C30.662 161.822 44.752 176.465 62.7106 184.159C80.65 191.862 102.458 192.482 125.304 182.784C152.739 171.193 170.054 152.408 178.396 131.446C189.598 103.386 185.018 71.741 169.14 47.7418C161.197 35.7422 150.399 25.636 137.313 18.913C124.227 12.1818 108.859 8.86109 91.9912 10.3518C90.3237 10.4969 88.6465 10.6968 86.9549 10.9539C79.9579 12.0203 72.9658 15.376 66.3148 19.235C59.6639 23.0939 53.3637 27.4814 47.8373 30.7204C47.5105 30.9174 47.5153 31.4124 47.6643 31.7103C47.8132 32.0034 48.2025 32.3062 48.5581 32.1621C54.5507 29.6439 61.4323 26.1214 68.2803 23.0891C75.1283 20.0519 81.9523 17.5338 87.743 16.9138C89.3385 16.736 90.9148 16.5919 92.4718 16.4861C108.258 15.4097 122.247 18.6871 134.16 24.9681C146.064 31.2538 155.901 40.5767 163.167 51.6776C177.714 73.8796 181.861 103.131 171.611 128.736C163.931 147.862 148.38 165.124 122.56 176.388C101.333 185.61 81.6303 185.259 65.0654 178.527C48.5148 171.784 35.1024 158.53 27.1203 141.672C19.1382 124.824 16.6008 104.405 21.8629 83.4427C27.1299 62.4855 40.2107 40.9515 63.6093 22.0414C64.234 21.5368 63.3449 20.4075 62.7058 20.8977Z" fill="black"/>
</svg>