<svg width="200" height="200" viewBox="0 0 200 200" fill="none" xmlns="http://www.w3.org/2000/svg" id="Scribble-49.svg" onclick="copyToClipboard(this)">
<path fill-rule="evenodd" clip-rule="evenodd" d="M177.345 57.9024C178.565 56.6133 180.6 56.5576 181.889 57.7781C187.559 63.1464 189.252 69.583 189.718 75.6904C189.941 78.6051 189.89 81.5299 189.843 84.2224C189.841 84.3124 189.84 84.4022 189.838 84.4918C189.789 87.3229 189.756 89.8708 189.985 92.2233C190.157 93.9901 188.864 95.5618 187.098 95.7339C185.331 95.906 183.759 94.6133 183.587 92.8465C183.316 90.0662 183.363 87.1486 183.411 84.3803L183.414 84.2286C183.462 81.4502 183.508 78.7892 183.309 76.1801C182.909 70.95 181.548 66.3081 177.469 62.4461C176.18 61.2257 176.125 59.1914 177.345 57.9024Z" fill="black"/>
<path fill-rule="evenodd" clip-rule="evenodd" d="M158.371 57.0434C159.541 55.7092 161.572 55.5767 162.906 56.7476C170.327 63.2593 171.691 71.3899 172.246 78.789C172.347 80.1354 172.42 81.4196 172.491 82.6685C172.623 84.9843 172.747 87.1784 173.03 89.421C173.451 92.7565 174.187 95.7627 175.649 98.4661C176.493 100.028 175.912 101.978 174.35 102.822C172.789 103.666 170.839 103.085 169.994 101.523C168.01 97.8526 167.126 93.9781 166.652 90.2254C166.344 87.7776 166.195 85.1836 166.053 82.7242C165.985 81.5303 165.918 80.3681 165.835 79.2696C165.31 72.2608 164.103 66.3498 158.666 61.5792C157.332 60.4084 157.2 58.3776 158.371 57.0434Z" fill="black"/>
<path fill-rule="evenodd" clip-rule="evenodd" d="M139.556 55.9941C140.782 54.7104 142.817 54.6638 144.1 55.8899C151.501 62.9589 154.563 71.9551 156.792 80.5233C157.284 82.4115 157.733 84.263 158.173 86.0736C159.79 92.7338 161.273 98.8426 164.212 104.206C165.065 105.763 164.495 107.716 162.938 108.569C161.381 109.422 159.428 108.852 158.575 107.295C155.184 101.108 153.445 93.912 151.81 87.1454C151.399 85.4428 150.994 83.7674 150.571 82.1421C148.398 73.7917 145.695 66.3024 139.66 60.5384C138.376 59.3123 138.33 57.2777 139.556 55.9941Z" fill="black"/>
<path fill-rule="evenodd" clip-rule="evenodd" d="M125.553 58.4775C127.028 57.4889 129.024 57.8828 130.013 59.3572C135.289 67.2257 138.21 75.0831 140.966 82.4972C141.549 84.0649 142.125 85.6128 142.713 87.1368C146.109 95.9249 150.067 104.354 158.511 112.793C159.766 114.048 159.767 116.083 158.512 117.339C157.257 118.594 155.222 118.595 153.966 117.34C144.607 107.985 140.252 98.6026 136.717 89.4535C136.076 87.7935 135.465 86.1549 134.861 84.5325C132.113 77.1583 129.49 70.1206 124.674 62.937C123.685 61.4626 124.079 59.466 125.553 58.4775Z" fill="black"/>
<path fill-rule="evenodd" clip-rule="evenodd" d="M107.085 59.0677C108.482 57.9725 110.502 58.217 111.597 59.6139C130.289 83.4536 137.552 103.664 137.202 129.757C137.178 131.532 135.72 132.952 133.945 132.928C132.17 132.904 130.75 131.446 130.774 129.671C131.102 105.248 124.459 86.4356 106.538 63.5803C105.443 62.1834 105.688 60.163 107.085 59.0677Z" fill="black"/>
<path fill-rule="evenodd" clip-rule="evenodd" d="M85.9214 63.1643C86.6337 61.5384 88.5293 60.7979 90.1552 61.5102C99.5958 65.6465 105.896 71.3021 110.124 77.8785C114.319 84.4032 116.358 91.6528 117.58 98.8023C118.331 103.2 118.804 107.827 119.255 112.235C119.519 114.816 119.776 117.323 120.076 119.664C120.921 126.263 122.144 132.014 124.716 136.694C125.571 138.249 125.003 140.204 123.448 141.059C121.892 141.914 119.938 141.346 119.083 139.79C115.902 134.002 114.566 127.245 113.7 120.481C113.353 117.778 113.084 115.128 112.817 112.496C112.391 108.291 111.969 104.134 111.243 99.8852C110.093 93.1536 108.254 86.8561 104.717 81.3551C101.214 75.9059 95.9269 71.0572 87.5755 67.3982C85.9496 66.6858 85.209 64.7903 85.9214 63.1643Z" fill="black"/>
<path fill-rule="evenodd" clip-rule="evenodd" d="M66.8591 63.0396C67.3078 61.3221 69.0639 60.2936 70.7813 60.7424C78.0916 62.6524 83.7889 68.0979 88.2135 74.8204C92.6552 81.5689 96.0517 89.9563 98.6511 98.4274C103.854 115.383 106.055 133.322 106.784 140.813C106.956 142.579 105.663 144.151 103.896 144.323C102.13 144.495 100.558 143.202 100.386 141.435C99.6724 134.103 97.5219 116.66 92.5056 100.313C89.9955 92.1329 86.8154 84.3886 82.8439 78.3545C78.8553 72.2944 74.3027 68.3065 69.1563 66.9619C67.4388 66.5131 66.4103 64.7571 66.8591 63.0396Z" fill="black"/>
<path fill-rule="evenodd" clip-rule="evenodd" d="M50.7648 60.3979C51.5914 58.827 53.5349 58.2235 55.1059 59.05C68.8082 66.2592 75.1467 76.3318 78.932 86.7406C80.6881 91.5693 81.9055 96.5013 83.0504 101.14C83.1197 101.421 83.1888 101.701 83.2577 101.979C84.4823 106.931 85.6536 111.506 87.3543 115.664C88.0263 117.307 87.2392 119.184 85.5962 119.856C83.9532 120.528 82.0765 119.741 81.4045 118.098C79.5 113.442 78.2295 108.424 77.0174 103.522C76.9551 103.27 76.8929 103.018 76.8307 102.767C75.6671 98.0549 74.5254 93.4322 72.8909 88.9375C69.5077 79.6346 64.0664 71.0281 52.1128 64.7389C50.5418 63.9124 49.9383 61.9689 50.7648 60.3979Z" fill="black"/>
<path fill-rule="evenodd" clip-rule="evenodd" d="M38.5343 61.7274C39.685 60.3758 41.7135 60.2128 43.0652 61.3634C53.9036 70.5898 58.9416 80.8384 63.7947 90.7105C64.557 92.2613 65.3148 93.8028 66.0898 95.3296C66.8932 96.9125 66.2614 98.847 64.6785 99.6504C63.0956 100.454 61.1611 99.822 60.3577 98.2392C59.5334 96.6153 58.7435 95.0139 57.9644 93.4344C53.1008 83.5743 48.6573 74.5659 38.8983 66.2583C37.5467 65.1077 37.3837 63.0791 38.5343 61.7274Z" fill="black"/>
<path fill-rule="evenodd" clip-rule="evenodd" d="M25.6806 64.9632C26.678 63.4948 28.6769 63.1129 30.1454 64.1103C35.5191 67.7603 39.3869 71.8474 42.7116 75.9643C44.2365 77.8525 45.6621 79.7666 47.0447 81.6228C47.1577 81.7745 47.2704 81.9258 47.3828 82.0767C48.8849 84.0922 50.3492 86.0419 51.9261 87.9426C53.0595 89.3088 52.8709 91.3351 51.5047 92.4685C50.1385 93.602 48.1122 93.4133 46.9788 92.0471C45.2827 90.0027 43.728 87.9301 42.2285 85.918C42.1195 85.7718 42.011 85.6261 41.9026 85.4806C40.5058 83.6054 39.1526 81.7888 37.7105 80.0031C34.6286 76.1868 31.2129 72.6063 26.5335 69.428C25.0651 68.4306 24.6832 66.4316 25.6806 64.9632Z" fill="black"/>
<path fill-rule="evenodd" clip-rule="evenodd" d="M10.9249 64.6577C12.1709 63.3934 14.206 63.3786 15.4703 64.6246L29.7731 78.7208C31.0374 79.9668 31.0522 82.0018 29.8062 83.2661C28.5602 84.5304 26.5252 84.5452 25.2608 83.2992L10.958 69.2031C9.6937 67.957 9.67889 65.922 10.9249 64.6577Z" fill="black"/>
</svg>