<svg width="200" height="200" viewBox="0 0 200 200" fill="none" xmlns="http://www.w3.org/2000/svg" id="Scribble-14.svg" onclick="copyToClipboard(this)">
<path d="M103.462 12.7959C99.1337 15.3688 95.1862 19.3823 91.5502 24.445C87.9142 29.5146 84.6244 35.6439 81.7156 42.5003C75.8633 56.2063 71.5348 72.8176 69.1455 89.571C66.7907 106.328 66.375 123.22 68.4874 137.514C69.5609 144.662 71.2577 151.161 73.6817 156.681C76.1057 162.197 79.2914 166.751 83.3083 169.916C83.9317 170.404 84.8323 170.294 85.3171 169.67C85.8019 169.047 85.6979 168.147 85.0746 167.662C81.5079 164.881 78.5991 160.743 76.3136 155.528C73.9935 150.32 72.3658 144.052 71.327 137.092C69.2493 123.171 69.6303 106.504 71.9851 89.9727C74.3052 73.4375 78.6335 57.034 84.3472 43.6188C87.1867 36.9113 90.4072 30.9517 93.8701 26.1072C97.3329 21.2592 101.073 17.5366 104.917 15.2476C105.575 14.8459 105.817 13.9699 105.402 13.2911C104.986 12.6159 104.12 12.3942 103.462 12.7959Z" fill="black"/>
<path d="M97.6823 172.69C94.7735 163.05 93.3886 150.964 93.1116 137.646C92.8692 124.325 93.7695 109.767 95.4663 95.1466C98.8253 65.9027 105.301 36.3991 111.776 15.9648C111.949 15.4108 112.122 14.8636 112.296 14.32C112.503 13.7001 112.226 12.9937 111.672 12.6716C111.153 12.3323 110.391 12.4119 109.941 12.8725C109.872 12.9383 109.803 13.0041 109.733 13.0699C105.613 17.2115 101.976 22.9494 98.6867 29.8093C95.397 36.6692 92.5229 44.6546 89.995 53.2944C85.0085 70.5775 81.5109 90.4821 79.6409 109.161C77.771 127.843 77.5287 145.271 79.0177 157.675C79.7795 163.884 80.9221 168.826 82.6882 172.178C83.5539 173.85 84.6274 175.166 85.9779 175.959C86.6705 176.354 87.4323 176.593 88.2288 176.638C89.0252 176.683 89.8564 176.538 90.6183 176.233C91.3108 175.966 91.5184 175.09 91.276 174.449C91.0336 173.809 90.272 173.296 89.5794 173.563C89.1292 173.743 88.7482 173.798 88.4019 173.778C88.0556 173.757 87.7442 173.667 87.3979 173.473C86.7399 173.095 85.9432 172.237 85.216 170.848C83.7616 168.078 82.5845 163.354 81.8573 157.333C80.4029 145.271 80.6452 127.967 82.4806 109.445C84.3505 90.9184 87.7786 71.1489 92.7305 54.0909C95.2237 45.5584 98.0635 37.7081 101.249 31.0352C104.435 24.3623 107.967 18.8771 111.742 15.0748C111.811 15.016 111.88 14.9537 111.949 14.8948C111.153 14.4135 110.357 13.9287 109.595 13.4473C109.422 13.9944 109.214 14.5485 109.041 15.1095C102.531 35.762 96.0548 65.3833 92.6612 94.821C90.9644 109.542 90.0641 124.21 90.3065 137.698C90.5489 151.186 91.9687 163.486 94.9813 173.504C95.2237 174.249 96.0204 174.671 96.7476 174.446C97.5094 174.221 97.9247 173.435 97.6823 172.69Z" fill="black"/>
<path d="M103.431 171.537C101.457 175.855 99.483 180.177 97.5091 184.499C98.4095 184.859 99.3101 185.222 100.21 185.586C101.803 181.091 103.257 176.42 104.608 171.596C117.975 123.604 119.429 61.1273 111.846 17.284C111.707 16.5776 111.049 16.0547 110.357 16.1032C109.664 16.124 109.075 16.7161 109.006 17.4295C109.006 17.6026 109.006 17.7792 108.971 17.9558C107.829 34.7334 104.366 69.0676 101.63 102.273C100.245 118.877 99.0676 135.201 98.4097 148.932C98.098 155.798 97.8903 162.014 97.8903 167.302C97.8903 172.593 98.0633 176.943 98.5135 180.132C98.6174 180.908 99.3098 181.451 100.106 181.347C100.868 181.243 101.422 180.534 101.318 179.758C100.903 176.794 100.73 172.524 100.73 167.305C100.73 162.083 100.938 155.902 101.249 149.067C101.907 135.392 103.085 119.092 104.47 102.505C107.205 69.3273 110.634 35.0208 111.811 18.1532C111.846 17.9766 111.846 17.8 111.846 17.6234C110.911 17.6754 109.976 17.7238 109.041 17.7723C116.555 61.1238 114.962 123.396 101.769 170.799C100.418 175.564 98.9984 180.18 97.4401 184.616C97.3363 184.99 97.336 185.385 97.5091 185.717C97.6476 186.05 97.9594 186.32 98.271 186.455C98.6173 186.59 99.0331 186.59 99.3447 186.455C99.691 186.323 100.003 186.057 100.141 185.704C102.115 181.368 104.054 177.033 105.993 172.694C106.616 171.281 104.089 170.128 103.431 171.537Z" fill="black"/>
<path d="M107.966 184.481C113.056 178.708 117.177 171.042 120.363 162.149C128.847 138.404 131.132 105.93 128.847 77.1358C127.704 62.7407 125.453 49.2702 122.198 38.2653C120.571 32.7628 118.701 27.8732 116.588 23.7801C114.476 19.687 112.121 16.3834 109.455 14.0668C109.039 13.7032 108.416 13.6201 107.931 13.8382C107.446 14.046 107.1 14.5447 107.1 15.0987C107.065 15.6839 107.065 16.2553 107.065 16.8128C107.1 17.8136 107.169 18.7728 107.273 19.6939C107.723 23.7351 108.935 27.0352 110.251 30.1968C111.602 33.3653 113.021 36.4022 114.026 40.0382C124.241 76.6026 124.172 110.206 115.307 146.248C113.402 153.932 111.152 161.74 108.52 169.712C108 171.194 110.667 172.094 111.186 170.616C113.922 162.606 116.311 154.742 118.216 146.964C127.185 110.507 127.184 76.2493 116.796 39.2591C115.722 35.3495 114.199 32.1706 112.917 29.0887C111.636 25.9998 110.528 23.0148 110.113 19.3684C110.009 18.5373 109.94 17.6682 109.94 16.754C109.94 16.2484 109.94 15.7255 109.94 15.1888C109.143 15.5316 108.381 15.8779 107.585 16.2207C109.836 18.1876 112.052 21.2072 114.026 25.0891C116.034 28.9709 117.87 33.7047 119.428 39.0755C122.614 49.8243 124.864 63.1285 125.938 77.3609C128.154 105.826 125.8 138.041 117.523 161.141C114.441 169.795 110.563 177.178 105.819 182.615C104.814 183.795 106.927 185.651 107.966 184.481Z" fill="black"/>
<path d="M106.199 20.972C109.8 22.603 113.125 25.3906 116.172 29.1547C119.185 32.9154 121.92 37.6456 124.275 43.0823C128.985 53.9557 132.24 67.6548 133.902 82.0984C135.529 96.5419 135.564 111.73 133.832 125.599C132.101 139.471 128.638 152.017 123.409 161.149C119.081 168.743 113.609 173.937 106.995 175.89C106.268 176.105 105.922 176.925 106.13 177.614C106.337 178.307 107.064 178.819 107.792 178.612C111.566 177.531 114.994 175.526 118.007 172.801C121.054 170.076 123.721 166.63 126.006 162.631C131.547 152.98 135.044 140.101 136.776 125.966C138.542 111.83 138.507 96.4346 136.81 81.7659C135.148 67.0973 131.824 53.1593 126.907 41.9327C124.483 36.3159 121.643 31.3744 118.388 27.3575C115.133 23.3441 111.462 20.2448 107.376 18.3887C106.718 18.0944 105.956 18.6034 105.714 19.1955C105.437 19.7842 105.541 20.6776 106.199 20.972Z" fill="black"/>
<path d="M110.736 15.9437C115.895 17.5955 120.778 21.0653 125.141 25.8821C129.539 30.699 133.418 36.8455 136.603 43.7505C142.975 57.5638 146.507 74.4002 145.814 89.5849C145.156 104.853 141.451 117.495 135.98 131.253C133.175 138.252 127.531 148.817 121.09 157.457C117.869 161.779 114.406 165.622 111.082 168.299C109.42 169.636 107.792 170.682 106.234 171.36C104.71 172.046 103.256 172.361 101.94 172.302C101.178 172.271 100.52 172.87 100.486 173.646C100.451 174.421 101.04 175.076 101.836 175.111C103.671 175.19 105.541 174.743 107.377 173.933C109.212 173.119 111.048 171.939 112.848 170.488C116.45 167.582 120.016 163.586 123.341 159.143C129.989 150.251 135.703 139.578 138.577 132.296C144.118 118.406 147.961 105.375 148.654 89.7095C149.347 73.9985 145.745 56.8089 139.201 42.5627C135.911 35.4396 131.894 29.0541 127.254 23.9637C122.613 18.8802 117.384 15.0815 111.601 13.2288C110.874 12.9864 110.078 13.402 109.836 14.15C109.593 14.9014 110.009 15.7048 110.736 15.9437Z" fill="black"/>
<path d="M104.432 17.7034C103.012 17.3814 101.593 17.5406 100.138 17.9977C98.7187 18.4548 97.2643 19.2098 95.8099 20.1724C92.9011 22.1047 89.8883 24.8888 87.0141 27.995C81.1965 34.2108 75.8639 41.7218 73.0244 46.227C67.4145 55.1715 62.4625 65.0026 59.7269 76.3261C55.3983 94.3399 54.879 117.029 58.8266 136.694C60.8351 146.525 63.9515 155.601 68.3147 162.963C72.7125 170.315 78.3918 175.984 85.4907 178.792C88.4687 179.959 91.4813 180.953 94.5979 181.227C97.7145 181.507 101.004 181.022 104.294 179.294C104.917 178.976 104.917 178.075 104.605 177.532C104.328 176.988 103.601 176.475 102.978 176.794C100.139 178.259 97.5414 178.643 94.8404 178.418C92.174 178.186 89.4037 177.3 86.5295 176.167C80.1579 173.657 74.9287 168.511 70.7387 161.516C66.5832 154.531 63.5361 145.732 61.5969 136.133C57.7185 116.932 58.238 94.5269 62.4626 76.991C65.0944 66.0691 69.9078 56.5255 75.4484 47.7333C78.1494 43.3805 83.482 35.9457 89.0918 29.9307C91.8967 26.9215 94.7709 24.269 97.4027 22.541C98.6839 21.6753 99.9307 21.0451 101.004 20.6988C102.112 20.3525 103.013 20.2902 103.774 20.4668C104.536 20.6468 105.298 20.1689 105.471 19.4071C105.644 18.6453 105.194 17.88 104.432 17.7034Z" fill="black"/>
<path d="M102.46 10.0121C100.036 9.90129 97.6464 10.5592 95.2916 11.6674C92.9369 12.7789 90.6515 14.3511 88.4352 16.1725C84.0028 19.8085 79.9164 24.4384 76.7998 28.4241C69.8395 37.251 63.3294 46.0639 58.516 57.6264C53.3564 70.0234 49.9974 85.2323 48.6469 100.864C47.331 116.495 47.9888 132.542 50.9322 146.608C53.9103 160.671 59.1047 172.78 67 180.489C70.9823 184.336 75.6227 187.061 80.9901 188.266C86.3229 189.478 92.3134 189.163 98.8928 187.085C99.5854 186.86 99.8973 186.019 99.6895 185.337C99.4818 184.654 98.7543 184.142 98.0271 184.367C91.8286 186.32 86.3921 186.569 81.6133 185.486C76.8346 184.402 72.6444 181.981 69.0084 178.442C61.7018 171.378 56.6115 159.756 53.7373 146.023C50.8632 132.296 50.1706 116.488 51.4865 101.106C52.8024 85.7241 56.1265 70.7576 61.1477 58.7241C65.8225 47.5391 72.125 38.9789 79.0507 30.1902C82.098 26.3049 86.0802 21.8031 90.2357 18.3749C92.3134 16.6643 94.4605 15.2203 96.5036 14.2472C98.5813 13.2707 100.555 12.779 102.321 12.8621C103.118 12.9002 103.776 12.2907 103.81 11.5046C103.845 10.7151 103.222 10.0467 102.46 10.0121Z" fill="black"/>
<path d="M104.26 14.6627C110.113 14.4307 115.272 15.4661 119.912 17.5507C124.518 19.6319 128.57 22.7692 132.067 26.7827C139.097 34.8027 143.945 46.3617 146.542 59.6694C151.806 86.285 148.135 119.823 136.5 145.68C135.011 149.015 132.24 153.648 128.778 158.572C125.315 163.5 121.159 168.736 116.831 173.362C112.537 177.988 108.035 182.005 104.053 184.478C102.044 185.717 100.174 186.566 98.5466 186.943C96.8844 187.324 95.5686 187.245 94.4605 186.746C93.8025 186.452 93.0754 186.957 92.7984 187.546C92.556 188.135 92.66 189.021 93.2833 189.312C95.1186 190.133 97.1271 190.167 99.1702 189.689C101.213 189.208 103.326 188.221 105.507 186.878C109.87 184.183 114.476 180.028 118.908 175.287C123.341 170.547 127.565 165.221 131.097 160.193C134.63 155.161 137.469 150.441 139.097 146.837C150.974 120.349 154.68 86.4131 149.312 59.1223C146.646 45.4787 141.694 33.4764 134.214 24.9197C130.474 20.643 126.076 17.2356 121.055 14.9674C116.034 12.6958 110.39 11.5773 104.156 11.83C103.36 11.8612 102.771 12.5226 102.771 13.3018C102.806 14.0844 103.464 14.6938 104.26 14.6627Z" fill="black"/>
</svg>