<svg width="200" height="200" viewBox="0 0 200 200" fill="none" xmlns="http://www.w3.org/2000/svg" id="Scribble-11.svg" onclick="copyToClipboard(this)">
<path d="M35.3012 103.351C32.2377 100.305 26.437 94.9294 21.8382 89.0718C19.5405 86.1466 17.5514 83.1008 16.3565 80.211C15.158 77.3141 14.775 74.6052 15.5374 72.2969C15.5232 72.343 15.4735 72.4529 15.3601 72.5416C15.2466 72.6338 15.0942 72.6621 15.0197 72.6586C14.8601 72.6444 14.9204 72.6267 15.0197 72.7011C15.236 72.8359 15.6509 73.2046 16.126 73.7117C17.094 74.7329 18.3739 76.3178 19.661 77.9985C20.9446 79.6827 22.2423 81.4662 23.267 82.9093C24.2846 84.3453 25.0471 85.4551 25.2208 85.7388C33.954 99.6168 41.6943 114.293 48.69 129.132C48.8992 129.571 49.4417 129.791 49.8814 129.614C50.3281 129.454 50.5941 128.933 50.4558 128.458C42.1127 99.631 22.8876 75.6867 12.8355 48.2285C12.1937 48.6504 11.5554 49.0688 10.9172 49.4872C22.9337 61.0392 32.6065 76.4525 41.1801 92.7062C49.7608 108.963 57.2424 126.05 64.9473 140.964C65.2877 141.623 66.1385 141.91 66.7839 141.591C67.4469 141.304 67.7803 140.471 67.4966 139.779C54.8277 108.928 36.7267 80.6259 20.8915 51.6785C20.6291 51.1962 20.1291 50.3559 19.5476 49.2922C18.9661 48.2355 18.3101 46.9733 17.7782 45.7393C17.2393 44.509 16.8351 43.2857 16.7216 42.4241C16.6613 41.9986 16.6791 41.6688 16.7181 41.5164C16.7642 41.3532 16.7713 41.3958 16.7571 41.3994C16.7039 41.4419 16.6152 41.4809 16.5443 41.4951C16.4769 41.5128 16.4344 41.5057 16.4344 41.5057C16.4344 41.5022 16.6046 41.5483 16.8386 41.6901C17.3208 41.9631 18.0301 42.5801 18.7038 43.2892C19.3881 44.0019 20.0617 44.8068 20.6077 45.4911C20.8807 45.835 21.1254 46.1471 21.324 46.4059C21.5296 46.6683 21.6821 46.8669 21.8169 47.0264C39.23 67.7513 51.4061 93.4118 63.802 118.25C66.9967 124.65 70.2197 130.99 73.5563 137.173C73.5527 137.166 73.5492 137.163 73.5457 137.159C74.925 139.772 76.3006 142.386 77.6799 144.999C77.882 145.382 78.2154 145.648 78.5984 145.765C78.9778 145.885 79.4033 145.85 79.7578 145.672C80.116 145.495 80.3995 145.176 80.5307 144.797C80.6654 144.424 80.6514 143.995 80.4741 143.612C72.7018 127.206 61.6001 110.74 50.5586 94.0216C39.5172 77.3106 28.5397 60.3407 21.0085 43.041C17.1472 34.1554 14.2751 25.1634 12.7505 16.136C12.0768 16.6217 11.3996 17.111 10.7259 17.6004C20.4412 23.0537 29.153 32.8967 37.1806 44.8104C55.3312 71.6552 69.8084 109.275 81.6831 131.475C82.1405 132.333 83.6794 131.539 83.2468 130.67C72.0919 108.339 58.7564 70.2049 40.1342 42.807C31.862 30.6806 22.5189 20.7099 12.0519 15.1679C11.559 14.9056 10.9704 14.9588 10.5626 15.2708C10.1442 15.5722 9.92436 16.1217 10.0236 16.6323C11.832 25.8832 14.9735 34.9603 18.9022 43.9594C26.5468 61.486 37.4713 78.6261 48.3673 95.4577C59.2634 112.282 70.1276 128.791 77.6517 144.939C78.5807 144.478 79.5131 144.017 80.4421 143.552C79.0805 140.932 77.719 138.311 76.3539 135.688C76.3468 135.681 76.3539 135.691 76.3468 135.673C73.0634 129.522 69.8758 123.2 66.6847 116.81C54.2994 92.0183 42.0276 66.1273 24.2244 45.0018C24.1677 44.9309 24.0082 44.7288 23.8096 44.4735C23.6075 44.2111 23.3521 43.8885 23.0613 43.5268C22.4798 42.8035 21.7565 41.9312 20.9694 41.1157C20.1787 40.2966 19.3455 39.5307 18.42 38.9811C17.952 38.7117 17.452 38.4847 16.8386 38.3996C16.2394 38.311 15.4593 38.4422 14.8743 38.896C14.2148 39.3854 13.8247 40.1193 13.6722 40.8037C13.5127 41.4986 13.534 42.1723 13.6262 42.8531C13.8176 44.204 14.3212 45.6011 14.9169 46.9803C15.5161 48.3526 16.2146 49.6857 16.821 50.792C17.4308 51.8947 17.9592 52.7847 18.1719 53.1712C34.1419 82.2108 52.2534 110.357 64.894 140.85C65.7449 140.457 66.5925 140.063 67.4435 139.666C59.7422 124.898 52.1826 107.818 43.4743 91.49C34.7659 75.1619 24.9123 59.5712 12.5448 47.7887C12.1477 47.4094 11.5165 47.3597 11.0839 47.6576C10.6371 47.9377 10.435 48.5369 10.6265 49.0475C21.0368 76.9277 40.315 100.681 48.6369 128.99C49.2255 128.766 49.8141 128.543 50.4027 128.32C43.3005 113.467 35.4468 98.7694 26.593 84.8701C26.3697 84.5155 25.6144 83.4234 24.5719 81.9732C23.533 80.5266 22.2176 78.7395 20.9057 77.0411C19.5902 75.3462 18.2853 73.7436 17.2429 72.6515C16.7146 72.1019 16.2677 71.6835 15.8352 71.407C15.6118 71.2758 15.4027 71.1481 15.0339 71.1304C14.8566 71.1268 14.6154 71.1835 14.4311 71.3289C14.2431 71.4743 14.1404 71.6658 14.0872 71.8253C13.1831 74.6371 13.7077 77.7042 14.9948 80.7783C16.289 83.856 18.3669 86.9727 20.7284 89.9511C25.4478 95.8974 31.3301 101.276 34.3866 104.279C34.9007 104.783 35.8154 103.858 35.3012 103.351Z" fill="black"/>
<path d="M80.9138 82.5972C71.0531 91.1637 64.536 101.936 58.3168 112.818C52.0975 123.707 46.1656 134.702 37.5423 143.807C38.0423 144.144 38.5421 144.481 39.0385 144.818C52.3102 116.526 67.0251 84.7069 88.1436 61.7163C87.3954 61.383 86.6472 61.0462 85.8991 60.7129C84.4205 74.5838 77.5949 88.3094 69.4504 101.659C61.3093 115.009 51.8742 127.958 45.2898 140.428C44.9317 141.105 45.1302 141.988 45.7294 142.432C46.3144 142.896 47.2185 142.861 47.7858 142.329C59.8697 131.103 69.4929 116.53 78.2934 101.422C87.0868 86.3167 95.0612 70.6623 103.741 57.2629C102.685 56.6601 101.632 56.0574 100.578 55.4546C85.704 84.8984 69.2376 113.179 52.2464 141.492C53.3491 142.127 54.4484 142.765 55.5512 143.403C55.7143 143.109 55.8737 142.818 56.0368 142.524C64.0218 128.089 71.9182 110.992 80.9067 94.8123C89.8845 78.6366 99.9934 63.3828 112.233 52.7208C111.51 52.2528 110.783 51.7883 110.056 51.3202C109.773 52.2811 109.482 53.242 109.184 54.1958C98.2879 89.1923 77.7935 120.459 63.9013 154.835C63.7169 155.292 63.724 155.788 63.8942 156.217C64.0644 156.65 64.3977 157.012 64.8161 157.214C65.231 157.419 65.7202 157.462 66.1634 157.327C66.6102 157.2 67.0074 156.902 67.2556 156.473C68.2023 154.842 69.1348 153.2 70.0567 151.544C77.6623 137.886 84.3141 123.373 91.2106 109.052C98.1035 94.7307 105.255 80.5761 113.818 67.6519C115.807 64.6487 117.871 61.7093 120.013 58.8478C119.42 58.511 118.825 58.1706 118.233 57.8338C106.177 86.3202 89.6682 112.509 76.3929 140.577C74.8718 143.793 73.3932 147.034 71.9679 150.3C71.6452 151.044 71.9289 151.948 72.592 152.349C73.2373 152.782 74.1769 152.654 74.7052 152.051C84.5766 140.822 91.0192 127.1 97.1321 113.271C103.234 99.4359 109.021 85.4551 117.406 73.6549C120.654 69.0809 124.292 64.8401 128.469 61.0604C127.813 60.7377 127.157 60.4151 126.501 60.0924C125.062 75.8142 118.176 91.6211 109.461 107.12C100.745 122.625 90.2248 137.847 81.5661 152.53C78.6728 157.434 75.9781 162.274 73.6166 167.032C74.8399 167.61 76.0633 168.188 77.2901 168.762C93.2956 132.351 116.364 99.0672 133.479 62.734C132.639 62.3936 131.795 62.0532 130.951 61.7128C130.299 63.6488 129.611 65.5847 128.895 67.5172C122.115 85.7813 112.552 103.776 102.309 121.434C92.0615 139.091 81.1336 156.441 71.5991 173.492C71.3686 173.9 71.1418 174.308 70.9149 174.716C72.2162 175.364 73.5138 176.013 74.8116 176.662C89.2356 144.148 104.078 112.066 116.304 78.6295C118.477 72.6833 120.555 66.691 122.516 60.6314C122.732 59.9506 122.392 59.1741 121.757 58.8904C121.137 58.5819 120.318 58.8124 119.931 59.4187C112.269 71.4033 103.458 89.7986 93.2742 106.942C88.1896 115.512 82.7717 123.76 77.0347 130.706C71.3013 137.659 65.2487 143.293 58.9657 146.697C58.1147 147.158 57.2602 147.58 56.4021 147.959C57.2141 148.775 58.0296 149.59 58.8452 150.406C71.7836 120.941 85.7715 92.2948 100.589 63.6452C100.788 63.2623 100.121 62.8971 99.9048 63.2694C83.839 91.2417 68.5533 119.335 55.4518 148.906C55.1398 149.608 55.3064 150.449 55.8347 150.966C56.3453 151.494 57.1892 151.665 57.8948 151.353C58.8522 150.934 59.7988 150.47 60.7349 149.963C67.6491 146.208 73.9676 140.215 79.8429 133.007C85.7147 125.799 91.1361 117.356 96.1852 108.648C106.273 91.2382 114.91 72.7188 122.356 60.9646C121.498 60.5604 120.637 60.1562 119.775 59.752C117.86 65.7833 115.815 71.7473 113.652 77.658C101.479 110.942 85.3353 142.3 70.8297 174.893C70.5921 175.428 70.5851 176.017 70.7765 176.531C70.9645 177.045 71.3545 177.485 71.8474 177.726C72.3367 177.974 72.9216 178.024 73.4464 177.864C73.9712 177.712 74.4393 177.35 74.7265 176.836C74.9499 176.432 75.1767 176.027 75.4037 175.623C84.8779 158.685 95.4619 141.12 105.386 123.178C115.315 105.233 124.583 86.9372 131.448 68.4639C132.171 66.5066 132.869 64.5494 133.54 62.5886C133.77 61.9114 133.409 61.1313 132.76 60.8866C132.125 60.6101 131.32 60.9186 131.012 61.5674C113.946 97.5957 90.0582 130.294 73.5776 167.117C73.3543 167.617 73.3471 168.174 73.5351 168.659C73.7159 169.145 74.0918 169.553 74.5598 169.773C75.0279 170 75.581 170.032 76.0739 169.868C76.5667 169.705 76.9958 169.351 77.2475 168.847C79.5806 164.22 82.2469 159.472 85.1119 154.622C93.6855 140.109 103.954 124.628 112.411 108.736C120.867 92.8373 127.533 76.5482 128.845 60.2909C128.888 59.8016 128.611 59.3336 128.189 59.135C127.771 58.9258 127.232 58.9968 126.881 59.323C122.605 63.2836 118.896 67.6732 115.573 72.3536C107.007 84.4268 100.983 98.4644 94.6677 112.162C88.3598 125.862 81.7718 139.184 72.2409 149.871C73.1557 150.456 74.067 151.041 74.9783 151.626C76.4108 148.396 77.8893 145.19 79.3963 141.999C92.558 114.151 108.209 87.3769 120.137 58.6316C120.339 58.1493 120.133 57.5714 119.694 57.3338C119.265 57.0785 118.662 57.2026 118.357 57.6175C116.208 60.525 114.141 63.5034 112.13 66.535C103.5 79.5692 95.9336 93.5996 88.6294 107.765C81.3252 121.927 74.2975 136.209 66.7805 149.722C65.8692 151.36 64.9509 152.984 64.0183 154.593C65.1352 155.14 66.2557 155.686 67.3726 156.232C80.9741 122.256 100.717 90.4049 111.758 54.9972C112.06 54.0292 112.354 53.0577 112.641 52.0861C112.811 51.5117 112.567 50.8735 112.077 50.5686C111.599 50.2494 110.918 50.292 110.464 50.6855C97.8269 61.6738 87.3776 77.0162 78.0559 93.199C68.7377 109.378 60.5825 126.405 52.6967 140.676C52.5372 140.967 52.3777 141.254 52.2146 141.545C51.9628 141.999 51.9096 142.527 52.0478 142.995C52.179 143.467 52.5017 143.882 52.9272 144.126C53.3491 144.371 53.8703 144.446 54.3455 144.325C54.8206 144.208 55.2497 143.903 55.5191 143.456C72.528 115.112 88.9945 86.7174 103.837 57.0927C104.057 56.6531 104.085 56.1637 103.947 55.7276C103.812 55.2915 103.507 54.9121 103.11 54.6887C102.713 54.4618 102.231 54.3908 101.788 54.4972C101.341 54.6 100.937 54.8766 100.674 55.2844C91.8949 68.9426 83.9737 84.6573 75.3079 99.6948C66.6492 114.732 57.2459 129.078 45.6124 140.003C46.4456 140.637 47.2789 141.272 48.1086 141.907C54.459 129.695 63.7949 116.697 71.9324 103.162C80.0627 89.6213 87.0159 75.527 88.4732 60.9788C88.5299 60.4151 88.2073 59.8726 87.7109 59.6598C87.2251 59.4365 86.6012 59.5606 86.2289 59.9719C64.9048 83.5617 50.4275 115.654 37.3827 144.048C37.1912 144.456 37.3401 144.96 37.7018 145.19C38.0528 145.438 38.5741 145.382 38.8754 145.059C47.637 135.645 53.5195 124.476 59.6359 113.566C65.7523 102.648 72.0955 91.9863 81.7044 83.4978C82.2009 83.0617 81.4137 82.1646 80.9138 82.5972Z" fill="black"/>
<path d="M110.532 99.1663C109.11 101.014 107.691 102.857 106.273 104.701C106.114 104.91 106.092 105.198 106.209 105.421C106.323 105.644 106.571 105.79 106.837 105.779C130.012 104.705 154.141 105.109 175.518 94.025C175.862 93.8441 176.043 93.4364 175.943 93.0747C175.862 92.7095 175.507 92.433 175.117 92.4365C142.344 92.7875 107.543 97.6168 74.78 100.273C74.2587 100.315 73.8261 100.755 73.7942 101.258C73.741 101.762 74.0921 102.265 74.6027 102.396C108.979 111.172 155.18 105.573 188.985 97.4112C189.648 97.2516 190.102 96.5673 189.981 95.9149C189.896 95.2589 189.254 94.7483 188.57 94.798C146.822 97.9182 104.174 98.3898 64.1888 85.5046C64.3945 86.3627 64.6001 87.2207 64.8022 88.0823C66.6495 86.2598 69.2947 84.7635 72.5923 83.5934C75.8863 82.4198 79.8219 81.5759 84.1938 81.0086C92.9376 79.8633 103.422 79.8172 114.138 80.2143C124.856 80.6115 135.809 81.4482 145.556 82.0581C155.311 82.6644 163.828 83.0474 169.838 82.5013C169.66 81.3986 169.483 80.2959 169.306 79.1896C155.332 82.395 136.696 83.6325 118.194 82.8453C99.6959 82.0652 81.2935 79.2534 67.8055 74.4809C67.7488 75.5942 67.6921 76.7076 67.6353 77.821C79.2512 74.9915 91.1754 74.9666 103.298 75.7999C115.609 76.6438 128.108 78.3741 140.646 78.8563C153.183 79.3421 165.781 78.5727 178.223 74.3355C179.032 74.059 179.539 73.1938 179.383 72.3889C179.262 71.5734 178.5 70.9245 177.649 70.9316C134.423 71.2436 91.0017 67.9709 48.4174 60.5674C48.4138 61.7162 48.4067 62.865 48.4032 64.0103C67.0857 60.929 86.7255 61.4042 106.553 62.2516C126.381 63.092 146.397 64.3081 165.866 62.6133C165.551 61.5212 165.235 60.4291 164.92 59.337C157.789 63.014 149.081 65.1627 139.532 66.2158C129.983 67.2724 119.598 67.2369 109.127 66.6093C88.1721 65.3577 66.8906 61.7446 51.0057 59.915C51.0695 61.0425 51.137 62.1736 51.2008 63.3011C70.9967 58.6491 93.1682 58.6988 115.63 59.5037C138.096 60.3015 160.846 61.8439 181.883 60.0462C181.599 58.9683 181.315 57.8939 181.035 56.8196C160.059 66.4604 131.345 67.4674 104.518 65.5314C91.1824 64.5812 78.3043 62.9608 67.0431 61.3829C66.9012 62.4006 66.7594 63.4217 66.6211 64.4394C92.2036 67.6163 117.783 72.279 143.865 71.4351C144.351 71.4209 144.737 71.0202 144.727 70.5345C144.716 70.0451 144.312 69.6622 143.826 69.6693C117.981 69.992 92.693 64.8684 67.0183 61.3794C66.607 61.3226 66.1921 61.4432 65.8801 61.6843C65.561 61.9254 65.3447 62.2942 65.2915 62.6913C65.2312 63.0849 65.334 63.4997 65.5716 63.8188C65.8056 64.1415 66.1673 64.372 66.5964 64.4358C77.8754 66.1519 90.8208 67.8858 104.28 68.8573C131.356 70.8039 160.477 69.9281 182.443 59.8972C183.187 59.5568 183.592 58.6882 183.375 57.9294C183.191 57.16 182.411 56.5997 181.595 56.6706C160.924 58.4329 138.288 56.9011 115.751 56.0856C93.2177 55.2736 70.7767 55.1779 50.4136 59.9469C49.6051 60.1384 49.0273 60.922 49.0876 61.7233C49.1195 62.5282 49.7824 63.2409 50.6121 63.3366C66.3481 65.1556 87.7218 68.7935 108.918 70.0664C119.52 70.7047 130.083 70.7508 139.912 69.6693C149.74 68.5808 158.846 66.3718 166.512 62.4254C167.246 62.0495 167.622 61.1595 167.384 60.4007C167.178 59.6278 166.388 59.0782 165.565 59.1491C146.446 60.8156 126.573 59.6171 106.702 58.7662C86.8319 57.9223 66.9651 57.4188 47.8358 60.5674C46.999 60.7021 46.3608 61.4645 46.3715 62.28C46.3537 63.0955 46.9849 63.865 47.8181 64.0068C90.6259 71.4528 134.253 74.7397 177.674 74.4277C177.482 73.293 177.287 72.1584 177.096 71.0238C165.225 75.0695 153.091 75.8389 140.78 75.3638C128.473 74.8922 116.01 73.1689 103.539 72.3109C91.2605 71.4705 78.9603 71.4705 66.8126 74.4312C66.0609 74.6156 65.5078 75.2964 65.483 76.0375C65.4333 76.7785 65.9155 77.5125 66.6424 77.7713C80.6516 82.7034 99.2917 85.5081 118.052 86.2846C136.809 87.0541 155.655 85.7918 170.058 82.4659C170.494 82.3666 170.855 82.1042 171.086 81.7532C171.316 81.4057 171.408 80.9731 171.341 80.5618C171.277 80.147 171.05 79.764 170.721 79.5087C170.394 79.2499 169.969 79.1152 169.526 79.1542C163.93 79.6825 155.467 79.3385 145.758 78.75C136.043 78.1649 125.059 77.3494 114.255 76.9771C103.447 76.6048 92.8242 76.6686 83.779 77.8742C79.2546 78.4769 75.1239 79.3634 71.5391 80.6469C67.9615 81.934 64.9157 83.6182 62.6287 85.8733C62.2387 86.2634 62.0826 86.8307 62.2102 87.3377C62.3273 87.8483 62.7209 88.288 63.2421 88.4511C103.919 101.418 146.932 100.73 188.772 97.4466C188.634 96.5744 188.495 95.7021 188.357 94.8334C154.857 103.081 108.894 108.789 75.1345 100.305C75.0743 101.01 75.0175 101.719 74.9573 102.425C107.794 99.6095 142.518 94.6242 175.139 94.1207C175.007 93.5889 174.873 93.0606 174.738 92.5322C153.924 103.485 130.005 103.272 106.77 104.442C106.957 104.8 107.145 105.159 107.333 105.517C108.745 103.666 110.156 101.811 111.567 99.9605C112.003 99.3861 110.971 98.5954 110.532 99.1663Z" fill="black"/>
<path d="M57.916 51.2637C80.3712 97.1172 109.943 139.219 131.986 185.147C132.104 185.388 132.408 185.495 132.635 185.378C132.873 185.271 132.979 184.97 132.866 184.729C120.629 158.941 93.6181 126.008 77.9566 94.0041C70.3829 78.5198 65.5642 63.2271 66.323 49.2391C65.9577 49.3845 65.5925 49.5299 65.2237 49.6752C88.3207 72.2687 106.854 103.145 122.271 133.525C127.218 143.276 131.855 152.97 136.185 162.345C136.841 161.99 137.497 161.639 138.156 161.284C133.132 153.434 123.473 138.127 113.449 120.969C103.426 103.812 93.0862 84.7497 86.757 69.4392C83.5942 61.8123 81.41 55.125 80.6796 50.1858C80.3144 47.718 80.3216 45.6898 80.6974 44.2573C80.8818 43.5375 81.1547 42.9738 81.4987 42.5483C81.8426 42.1228 82.2468 41.825 82.7752 41.6264C82.9666 41.5555 83.2432 41.5377 83.6616 41.6441C84.0729 41.7505 84.6012 41.9845 85.204 42.3533C86.4167 43.0872 87.9307 44.3495 89.6362 46.0408C93.0578 49.4235 97.2879 54.5152 101.929 60.5961C111.216 72.7651 122.193 88.8982 132.135 103.4C137.631 111.414 142.851 118.906 147.194 125.026C151.538 131.146 154.991 135.89 157.058 138.414C157.406 138.84 158.019 138.939 158.448 138.663C158.888 138.407 159.076 137.812 158.87 137.351C152.906 123.863 143.599 112.853 134.49 101.748C124.675 89.7917 115.166 77.6653 109.875 63.3511C109.492 63.9043 109.106 64.4574 108.723 65.0106C118.296 65.4077 125.501 69.7725 130.465 76.0449C135.979 83.0406 138.482 92.5964 137.326 101.62C136.167 110.655 131.44 119.097 122.487 124.182C118.917 126.21 113.534 128.589 107.329 130.685C101.121 132.78 94.0825 134.599 87.1576 135.553C80.2364 136.507 73.4251 136.585 67.7094 135.259C61.9759 133.926 57.3948 131.252 54.5831 126.685C53.6186 125.107 53.2604 123.721 53.2958 122.437C53.3384 121.157 53.7853 119.941 54.6044 118.736C56.2354 116.321 59.4229 114.062 63.1778 112.194C70.6877 108.425 80.3783 106.109 84.2715 105.308C97.1284 102.652 109.787 100.851 122.867 99.6524C124.303 99.5212 127.71 99.1419 132.256 98.7057C136.798 98.2696 142.468 97.7838 148.382 97.4505C157.282 96.9364 166.76 96.8477 173.684 97.7484C177.138 98.1916 179.96 98.9043 181.637 99.8226C182.481 100.273 183.01 100.762 183.258 101.188C183.503 101.62 183.566 101.978 183.424 102.585C183.063 104.031 182.325 105.308 181.215 106.485C180.106 107.662 178.62 108.73 176.819 109.673C173.216 111.563 168.362 112.942 162.944 113.917C152.101 115.864 139.018 116.229 128.841 116.374C122.945 116.449 118.038 116.427 115.02 116.537C103.262 116.966 83.1049 116.842 68.4823 112.304C64.8301 111.173 61.529 109.768 58.7988 108.059C56.0686 106.354 53.92 104.347 52.5017 102.017C51.0834 99.6808 50.3671 97.0144 50.555 93.8303C50.7465 90.6463 51.8669 86.9374 54.2036 82.6684C55.5509 80.2076 57.3026 77.5625 59.4974 74.7259C64.9579 67.6663 73.652 64.1312 84.0906 63.2412C94.5151 62.3477 106.603 64.1348 118.555 67.5883C130.508 71.0419 142.333 76.1477 152.272 81.8315C162.207 87.5047 170.263 93.7913 174.613 99.4042C175.837 100.979 176.56 102.337 176.883 103.425C177.205 104.524 177.163 105.315 176.911 106.01C176.652 106.705 176.134 107.386 175.209 108.07C174.294 108.747 172.989 109.389 171.358 109.939C168.355 110.953 164.253 111.662 159.416 112.077C154.573 112.495 148.988 112.63 142.957 112.559C130.891 112.414 117.038 111.442 103.667 110.254C90.2956 109.066 77.4033 107.659 67.2271 106.634C62.1354 106.12 57.7245 105.705 54.2604 105.46C52.5265 105.336 51.0301 105.258 49.7927 105.233C48.5517 105.209 47.5872 105.233 46.832 105.34C46.293 105.418 45.8533 105.843 45.7611 106.354C45.6548 106.864 45.8996 107.421 46.3605 107.691C54.6717 112.555 68.4788 117.069 83.2539 119.785C98.0254 122.491 113.715 123.388 125.767 120.767C130.192 119.799 134.132 118.349 137.355 116.296C139.621 114.853 141.287 113.275 142.383 111.552C143.475 109.832 143.978 107.964 143.918 106.067C143.794 102.259 141.581 98.4292 138.05 94.5856C130.962 86.9126 118.353 79.0587 104.482 72.1233C90.6149 65.1985 75.4993 59.2275 63.4651 55.4867C57.4409 53.6146 52.1967 52.2991 48.2184 51.7034C46.2257 51.402 44.5556 51.2815 43.2118 51.3772C42.5416 51.4233 41.946 51.5261 41.4141 51.7176C40.8894 51.9126 40.3966 52.2069 40.0526 52.6998C38.2939 55.2385 37.9357 58.5396 38.5208 62.2555C39.1094 65.9821 40.6411 70.1944 42.8572 74.7471C47.2894 83.8455 54.4731 94.2948 62.4971 104.489C70.5211 114.683 79.3819 124.614 87.1718 132.624C91.0686 136.627 94.696 140.148 97.8198 142.985C100.947 145.822 103.557 147.97 105.486 149.254C113.18 154.367 119.974 157.444 125.966 158.82C131.951 160.199 137.156 159.856 141.528 158.09C145.907 156.331 149.407 153.165 152.059 149.08C154.715 144.995 156.551 139.989 157.668 134.426C159.902 123.303 159.285 109.939 156.325 97.1704C153.357 84.4057 148.049 72.2439 140.748 63.5497C133.082 54.4442 122.725 47.5478 111.74 43.2787C100.748 39.0132 89.1256 37.368 78.8606 38.8643C73.73 39.616 68.9361 41.1548 64.7521 43.5766C60.5682 45.9948 56.9977 49.2994 54.3632 53.5259C51.7252 57.7489 50.0267 62.8831 49.5126 68.918C48.9984 74.9564 49.6615 81.8989 51.7215 89.8059C54.7744 101.5 60.2775 112.633 67.4009 121.944C74.5278 131.248 83.2787 138.737 92.8876 143.074C102.482 147.41 112.988 148.559 123.353 145.091C133.717 141.63 143.847 133.614 152.903 119.952C156.495 114.545 158.523 108.956 159.182 103.361C159.845 97.7661 159.147 92.178 157.36 86.7495C153.786 75.8889 145.921 65.6523 135.773 56.8057C125.622 47.9626 113.159 40.5059 100.259 35.2937C87.3598 30.0885 74.0243 27.1243 62.0752 27.3477C52.1967 27.5392 43.2225 29.929 36.3544 35.1909C29.2239 40.6513 24.1322 46.8316 20.8949 53.4585C17.6541 60.082 16.2713 67.138 16.4769 74.2968C16.8989 88.6252 23.611 103.358 34.3865 116.587C55.9517 143.031 93.9195 163.603 131.962 162.476C132.359 162.465 132.674 162.135 132.664 161.735C132.657 161.338 132.323 161.022 131.926 161.033C94.4442 161.721 57.2387 140.935 36.4394 114.927C26.0362 101.929 19.7674 87.6572 19.4766 74.2188C19.3241 67.4961 20.6502 60.9755 23.6889 54.8343C26.7312 48.6931 31.4931 42.9206 38.2974 37.7367C44.4599 33.0386 52.7286 30.7729 62.1354 30.5956C73.5031 30.3757 86.4699 33.2266 99.0466 38.3005C111.623 43.3745 123.81 50.6645 133.66 59.2345C143.517 67.801 151.016 77.6511 154.339 87.7458C156.002 92.795 156.636 97.9008 156.041 102.993C155.442 108.084 153.619 113.176 150.286 118.218C141.514 131.475 131.93 138.957 122.37 142.166C112.811 145.371 103.188 144.368 94.1286 140.308C85.0834 136.252 76.6517 129.11 69.7588 120.136C62.8588 111.165 57.4975 100.369 54.5226 89.0719C52.5087 81.4238 51.8847 74.8039 52.3528 69.159C52.8244 63.5107 54.3808 58.8339 56.7529 55.0116C59.1286 51.1928 62.3233 48.2108 66.1491 45.9841C69.9714 43.7609 74.4213 42.3036 79.2613 41.5874C88.9411 40.1443 100.156 41.676 110.772 45.7714C121.395 49.8667 131.412 56.5185 138.766 65.2233C145.726 73.4494 150.967 85.2851 153.885 97.7413C156.81 110.197 157.424 123.274 155.296 133.95C154.236 139.29 152.495 144.024 150.056 147.782C147.616 151.548 144.51 154.338 140.645 155.906C136.784 157.473 132.114 157.834 126.484 156.558C120.856 155.282 114.283 152.349 106.744 147.357C104.989 146.201 102.415 144.102 99.3338 141.315C96.249 138.524 92.6429 135.039 88.7674 131.068C81.0129 123.132 72.1733 113.265 64.1919 103.156C56.2069 93.0502 49.0765 82.6896 44.7436 73.8253C42.5736 69.3966 41.1127 65.3438 40.5738 61.9293C40.0313 58.5041 40.4179 55.7952 41.7511 53.8769C41.7581 53.8592 41.8467 53.7564 42.1233 53.6571C42.3928 53.5578 42.8182 53.4727 43.3607 53.4337C44.4528 53.3522 46.0165 53.4514 47.9135 53.7351C51.7216 54.2989 56.9019 55.586 62.8588 57.4298C74.7795 61.1209 89.8276 67.0422 103.592 73.9033C117.353 80.7572 129.848 88.5826 136.603 95.9188C139.993 99.578 141.883 103.088 141.957 106.123C142 107.652 141.624 109.084 140.727 110.502C139.83 111.917 138.39 113.314 136.302 114.647C133.341 116.534 129.611 117.924 125.349 118.853C113.729 121.406 98.2027 120.487 83.6474 117.686C69.0957 114.899 55.4623 110.222 47.6581 105.506C47.5021 106.29 47.3425 107.074 47.1865 107.857C47.6688 107.79 48.5588 107.769 49.7253 107.808C50.8954 107.847 52.3564 107.939 54.0583 108.081C57.4693 108.364 61.8589 108.832 66.9293 109.407C77.0772 110.556 89.9659 112.126 103.365 113.456C116.768 114.789 130.682 115.878 142.907 116.069C149.02 116.165 154.711 116.041 159.721 115.608C164.731 115.172 169.054 114.442 172.489 113.272C174.358 112.633 175.971 111.864 177.294 110.882C178.609 109.907 179.648 108.687 180.184 107.205C180.726 105.726 180.709 104.067 180.198 102.422C179.691 100.766 178.723 99.0851 177.312 97.291C172.433 91.1249 164.058 84.7887 153.828 79.073C143.599 73.3714 131.522 68.3258 119.3 64.9467C107.078 61.5712 94.7136 59.848 83.8778 60.8514C73.0527 61.8549 63.6742 65.6204 57.7138 73.3466C55.4658 76.2647 53.6504 79.0056 52.2321 81.5869C49.7714 86.0581 48.4879 90.0612 48.2326 93.6778C47.9773 97.291 48.775 100.511 50.4061 103.269C52.0336 106.031 54.459 108.325 57.4055 110.244C60.3555 112.158 63.8339 113.704 67.6279 114.963C82.7965 119.984 103.163 120.491 115.137 120.172C118.009 120.097 122.952 120.165 128.888 120.101C139.145 120.001 152.396 119.431 163.565 117.129C169.153 115.981 174.223 114.41 178.187 112.194C180.166 111.084 181.875 109.804 183.208 108.311C184.541 106.818 185.495 105.092 185.917 103.163C186.19 102 185.985 100.801 185.371 99.8652C184.765 98.922 183.85 98.2341 182.758 97.6775C180.567 96.5747 177.549 95.9471 173.943 95.5536C166.753 94.7841 157.236 95.043 148.276 95.5465C142.326 95.8833 136.635 96.3655 132.075 96.7946C127.519 97.2201 124.083 97.5959 122.693 97.72C109.546 98.8865 96.8057 100.642 83.8496 103.241C79.85 104.049 70.0566 106.308 62.178 110.18C58.2387 112.13 54.7532 114.463 52.6932 117.42C51.6684 118.895 51.0124 120.558 50.945 122.356C50.8706 124.15 51.3918 126.036 52.5406 127.93C55.7212 133.195 60.9936 136.244 67.1313 137.702C73.2867 139.17 80.3676 139.109 87.5088 138.177C94.6499 137.244 101.851 135.429 108.212 133.323C114.577 131.217 120.091 128.823 123.902 126.692C133.742 121.189 139.035 111.814 140.305 102.007C141.578 92.1886 138.915 81.8705 132.859 74.1621C127.43 67.2302 119.073 62.5569 108.769 62.5817C108.329 62.5817 107.946 62.7944 107.734 63.1242C107.514 63.4469 107.464 63.883 107.613 64.2411C113.691 78.8176 123.924 90.4051 133.735 102.368C142.844 113.456 151.655 124.82 156.913 138.17C157.516 137.815 158.122 137.461 158.725 137.103C156.839 134.603 153.587 129.724 149.471 123.466C145.35 117.211 140.354 109.566 134.869 101.528C124.941 86.987 113.552 71.0738 103.869 59.075C99.0254 53.0721 94.6109 48.0477 90.98 44.6438C89.1575 42.9418 87.5371 41.6441 86.1047 40.8215C85.3884 40.4138 84.7182 40.1195 84.0622 39.967C83.4133 39.8181 82.761 39.8145 82.1618 40.0556C81.3675 40.3748 80.7045 40.8889 80.2081 41.5448C79.7082 42.2043 79.3713 42.9951 79.1621 43.8815C78.7543 45.6579 78.8322 47.8421 79.2684 50.4092C80.1477 55.5399 82.4987 62.2236 85.7643 69.8576C92.3204 85.1539 102.472 104.315 112.212 121.675C121.949 139.035 131.32 154.544 136.259 162.479C136.564 162.969 137.238 163.15 137.731 162.873C138.238 162.621 138.468 161.962 138.227 161.419C134.022 151.963 129.469 142.187 124.505 132.394C109.031 101.869 89.6965 71.1624 66.1244 48.7427C65.9365 48.5619 65.6563 48.5122 65.4329 48.608C65.2024 48.6966 65.0394 48.9271 65.0288 49.1788C64.4615 63.5284 69.539 78.846 77.1588 94.3941C92.8948 126.515 119.888 159.512 131.986 185.147C132.281 185.005 132.572 184.867 132.866 184.729C110.847 138.67 81.3676 96.479 59.0897 50.6893C58.9301 50.3666 58.54 50.2319 58.2138 50.3915C57.8912 50.5475 57.7565 50.9375 57.916 51.2637Z" fill="black"/>
</svg>