<svg width="200" height="200" viewBox="0 0 200 200" fill="none" xmlns="http://www.w3.org/2000/svg" id="Scribble-47.svg" onclick="copyToClipboard(this)">
<path d="M43.3889 30.7899C66.0031 32.0588 88.6927 36.9456 111.533 39.1568C134.373 41.3554 157.503 40.8531 180.632 30.928C182.127 30.2872 183.057 28.6794 182.894 27.1215C182.78 25.5511 181.575 24.1438 179.966 23.7794C169.049 21.2793 155.003 20.5252 139.487 21.279C123.983 22.0328 107.048 24.3195 90.5144 28.0257C73.9809 31.7319 57.8746 36.8455 44.0045 43.3534C30.1345 49.8738 18.4632 57.7258 10.9126 67.3368C10.0457 68.4424 9.78177 69.9376 10.1838 71.2316C10.5733 72.5382 11.6034 73.6435 12.9728 74.0958C38.1626 82.4505 63.013 80.0513 87.0218 77.325C111.068 74.5485 134.323 71.5077 156.711 77.2367C156.058 74.5104 155.417 71.797 154.764 69.0833C148.42 74.5484 141.108 77.5134 132.828 79.1592C124.562 80.805 115.428 81.0309 105.955 81.0309C96.4821 81.0309 86.6952 80.8048 77.0464 81.7093C67.4228 82.6265 57.8746 84.6994 49.1179 89.5363C47.7234 90.3153 46.7937 91.71 46.5927 93.2177C46.3665 94.7253 46.8818 96.3207 48.0251 97.464C56.6561 106.045 66.6314 111.41 77.1345 114.463C87.6501 117.528 98.6808 118.37 109.774 118.156C131.949 117.704 154.563 113.106 174.011 112.452C173.345 109.06 172.68 105.655 172.014 102.263C129.323 117.729 82.9136 122.026 37.1826 131.096C34.6951 131.586 32.8106 133.86 32.798 136.31C32.6975 138.76 34.469 141.122 36.944 141.738C61.9327 147.932 87.2984 144.388 112.124 139.614C136.962 134.777 161.41 128.672 184.451 128.709C183.509 125.254 182.579 121.799 181.65 118.357C173.27 123.244 162.49 126.021 150.517 127.83C132.049 130.656 110.918 131.411 91.7082 136.135C82.1097 138.497 72.9635 141.888 64.9606 147.165C56.9576 152.429 50.1608 159.628 45.4621 169.201C44.859 170.433 44.9093 171.764 45.4746 172.82C46.0274 173.875 47.1079 174.654 48.2637 174.805C83.5796 179.591 119.988 177.669 155.178 179.353C155.379 179.353 155.555 179.202 155.581 179.001C155.593 178.8 155.442 178.624 155.241 178.599C120.202 174.428 83.5544 173.712 49.5075 167.191C50.4372 169.051 51.3668 170.922 52.3091 172.794C56.8696 164.691 62.7743 159.063 69.7973 154.854C76.8203 150.645 85.0242 147.919 93.982 146.009C111.91 142.19 132.753 141.775 152.201 138.823C164.79 136.888 176.876 133.961 187.24 127.955C189.401 126.699 190.469 124.023 189.803 121.699C189.213 119.362 186.952 117.591 184.451 117.604C159.475 117.629 134.461 124.023 110.013 128.772C85.5645 133.559 61.8323 136.662 39.5573 131.147C39.4819 134.702 39.4063 138.245 39.3184 141.788C84.2704 132.73 131.245 128.333 175.607 112.138C178.031 111.259 179.502 108.608 178.974 106.183C178.547 103.746 176.172 101.848 173.622 101.949C152.917 102.778 130.466 107.414 109.561 107.891C99.108 108.13 89.1074 107.352 79.9613 104.726C70.8025 102.088 62.4854 97.6522 55.0604 90.3528C54.6961 93.0037 54.3319 95.6421 53.9675 98.2805C61.0408 94.3355 69.1566 92.4261 78.0013 91.5466C86.846 90.6546 96.3565 90.8178 105.98 90.7675C115.591 90.7173 125.328 90.4786 134.713 88.5689C144.085 86.6718 153.168 83.0409 160.97 76.219C162.327 75.038 162.88 73.1786 162.465 71.5328C162.076 69.8744 160.732 68.4802 159.023 68.0656C134.248 61.9221 109.85 65.4772 85.9666 68.3165C62.0584 71.1935 38.7281 73.3922 15.6742 65.8793C16.3652 68.1407 17.056 70.3897 17.747 72.6511C23.9031 64.6357 34.4941 57.1855 47.5978 50.954C60.7015 44.71 76.2677 39.6347 92.3112 35.9411C108.355 32.2349 124.876 29.8978 139.889 29.0686C154.902 28.2394 168.421 28.9303 178.295 31.1414C178.069 28.7669 177.856 26.38 177.63 23.9929C156.209 33.3527 134.537 34.0816 112.199 32.0714C89.8863 30.0738 67.0585 25.3119 43.7407 24.1309C41.9065 24.043 40.3486 25.4504 40.248 27.2847C40.1601 29.1189 41.5546 30.6894 43.3889 30.7899Z" fill="black"/>
</svg>