<svg width="200" height="200" viewBox="0 0 200 200" fill="none" xmlns="http://www.w3.org/2000/svg" id="Scribble-40.svg" onclick="copyToClipboard(this)">
<path d="M29.3128 28.46C38.6166 34.3759 48.5078 36.7529 58.2656 36.5466C68.0333 36.3443 77.6725 33.6 86.6949 29.3716C92.0057 26.9013 96.7342 23.2672 101.043 19.4095C101.704 18.8167 100.919 17.6785 100.13 18.0862C95.0459 20.7145 89.8144 22.9385 84.7949 25.3086C76.2018 29.3371 67.1545 31.8873 58.1716 32.0828C49.1837 32.2733 40.2554 30.1495 31.6722 24.7311C30.8035 24.1818 29.6288 25.0213 29.1649 25.7543C28.7009 26.4877 28.4442 27.9082 29.3128 28.46Z" fill="black"/>
<path d="M17.0515 53.7223C31.6759 53.8249 43.2944 52.8891 53.8073 50.8374C64.3154 48.7871 73.6983 45.6228 83.8065 41.3322C91.8467 37.9775 100.148 33.4919 109.812 28.1194C110.266 27.8682 110.282 27.2049 110.084 26.7982C109.887 26.392 109.353 25.9927 108.88 26.193C98.6776 30.4807 90.0648 34.1711 82.2072 37.5648C72.2619 41.7883 63.2098 44.8667 53.0275 46.9022C42.8501 48.9362 31.523 49.9297 17.0664 49.9198C16.0151 49.9193 15.1612 50.7638 15.1563 51.8137C15.1513 52.8635 16.0002 53.7149 17.0515 53.7223Z" fill="black"/>
<path d="M10.9663 74.3929C19.6926 70.9251 28.5373 69.281 37.4956 67.753C47.9296 65.9667 58.6103 64.8217 69.2121 62.3252C79.809 59.8297 90.3322 55.9537 100.233 48.679C102.331 47.1342 99.5367 43.3297 97.4341 44.8731C88.1847 51.6671 78.3582 55.3205 68.1315 57.8179C57.9195 60.3144 47.3177 61.6248 36.7504 63.76C27.6885 65.5961 18.715 68.3941 10.2997 72.9729C9.96407 73.1551 9.93966 73.6373 10.0828 73.9398C10.2259 74.2424 10.6109 74.5336 10.9663 74.3929Z" fill="black"/>
<path d="M13.0748 92.1136C24.1899 88.6023 36.4404 87.0407 48.6068 85.0723C60.7733 83.0946 72.8757 80.7132 83.6848 75.3288C90.6194 71.8704 96.7988 66.837 101.789 60.0949C102.805 58.7149 100.545 56.8561 99.385 58.1226C94.0298 63.9763 88.0329 67.9342 81.5968 71.1434C71.5626 76.155 59.9195 78.5192 47.8616 80.4915C35.8038 82.4727 23.3459 84.0645 11.6977 87.7652C10.5526 88.129 10.0643 89.4745 10.4098 90.5653C10.7553 91.6556 11.9297 92.4754 13.0748 92.1136Z" fill="black"/>
<path d="M16.5444 108.984C56.706 107.484 94.6662 88.8106 119.419 58.3851C120.263 57.3452 120.09 55.8117 119.044 54.9726C117.997 54.1335 116.462 54.2954 115.633 55.3462C92.2033 84.9504 55.5856 103.682 16.4013 105.65C15.4832 105.696 14.7726 106.471 14.8121 107.389C14.8516 108.308 15.6264 109.018 16.5444 108.984Z" fill="black"/>
<path d="M16.03 129.363C30.4718 127.923 48.344 122.587 65.8558 114.547C83.3577 106.502 100.494 95.753 113.362 83.4296C117.898 79.0566 121.841 74.4077 124.852 69.5337C127.404 65.3887 129.25 61.0986 130.454 56.8989C130.483 56.8066 130.34 56.7483 130.296 56.8332C128.223 60.6683 125.572 64.3133 122.601 67.9356C119.121 72.2098 115.158 76.4757 110.726 80.6735C98.2487 92.5754 81.5216 103.295 64.3948 111.43C47.2779 119.57 29.7461 125.124 15.7485 126.753C15.0329 126.836 14.5248 127.486 14.6038 128.197C14.6778 128.908 15.3144 129.434 16.03 129.363Z" fill="black"/>
<path d="M36.8439 145.577C63.9851 134.703 84.2512 124.665 101.906 111.443C119.561 98.2233 134.536 81.8453 151.1 58.4457C151.663 57.6476 151.47 56.541 150.671 55.9784C149.871 55.4157 148.76 55.6062 148.203 56.4078C131.895 79.7214 117.276 95.8576 100.021 108.938C82.7605 122.017 62.8108 132.065 35.8225 143.052C35.1759 143.314 35.008 144.153 35.2499 144.751C35.4917 145.35 36.1973 145.836 36.8439 145.577Z" fill="black"/>
<path d="M49.2774 158.269C63.7537 150.409 81.4233 142.423 98.7821 133.026C116.131 123.626 133.208 112.8 146.377 99.1699C158.02 87.0864 166.253 72.5044 168.439 55.6817C168.874 52.3452 163.104 51.3906 162.428 54.6872C159.323 69.8639 151.219 82.165 140.36 93.3527C128.13 105.985 111.946 116.822 95.184 126.642C78.4274 136.467 61.1278 145.262 46.7748 153.903C45.7581 154.517 45.916 156.118 46.4244 157.003C46.9328 157.888 48.231 158.837 49.2774 158.269Z" fill="black"/>
<path d="M68.9656 173.738C88.501 158.968 109.428 146.854 128.771 133.259C148.089 119.672 165.893 104.55 178.651 83.8429C183.804 75.5801 187.481 66.0986 189.954 55.746C190.428 53.7688 187.22 52.7412 186.45 54.6232C182.531 64.228 177.846 72.5392 173.074 80.4101C161.026 100.006 144.249 114.829 125.479 128.692C106.733 142.547 86.0678 155.39 66.7841 170.947C65.2639 172.175 67.4059 174.917 68.9656 173.738Z" fill="black"/>
<path d="M87.5523 182.425C107.586 165.47 130.448 151.898 150.635 134.969C163.981 123.768 176.079 111.088 185.294 95.5093C186.463 93.5375 182.994 91.4073 181.76 93.3391C172.352 108.096 160.324 119.925 147.23 130.912C127.477 147.494 105.113 162.141 85.5828 180.199C84.3736 181.314 86.2986 183.486 87.5523 182.425Z" fill="black"/>
</svg>