<svg width="200" height="200" viewBox="0 0 200 200" fill="none" xmlns="http://www.w3.org/2000/svg" id="Scribble-22.svg" onclick="copyToClipboard(this)">
<path d="M117.033 79.678C115.045 80.2086 112.367 81.5411 109.564 83.3583C106.773 85.1797 103.908 87.4774 101.719 89.9797C100.624 91.2329 99.6965 92.5362 99.0448 93.8939C98.3973 95.2516 98.0172 96.6804 98.1258 98.1467C98.2261 99.6046 98.8735 101.054 100.035 102.232C101.196 103.419 102.821 104.379 104.969 105.152C109.088 106.64 112.939 106.577 116.064 105.399C119.189 104.221 121.578 101.94 122.777 99.1325C123.984 96.3294 123.959 92.9791 122.376 89.9129C120.797 86.8382 117.743 84.0936 113.123 82.172C112.154 81.7668 111.038 82.243 110.646 83.2164C110.249 84.1855 110.712 85.3051 111.69 85.6894C115.721 87.2894 118.044 89.4492 119.193 91.5797C120.329 93.7186 120.371 95.8741 119.602 97.8041C118.825 99.7299 117.196 101.405 114.878 102.328C112.563 103.252 109.547 103.431 105.992 102.232C104.133 101.601 102.905 100.854 102.165 100.123C101.43 99.3832 101.134 98.6981 101.046 97.9043C100.966 97.1106 101.159 96.1624 101.639 95.1096C102.115 94.0569 102.876 92.9207 103.828 91.7886C105.733 89.5202 108.402 87.2811 111.001 85.5182C113.591 83.7511 116.152 82.456 117.676 82.0341C118.299 81.8586 118.612 81.161 118.449 80.5553C118.282 79.9537 117.664 79.5068 117.033 79.678Z" fill="black"/>
<path d="M112.241 62.442C103.602 60.019 94.9299 62.1537 87.4898 66.8868C80.0414 71.6199 73.7584 78.9263 69.6686 87.0055C65.5956 95.0848 63.6697 103.958 65.2154 111.937C65.9882 115.922 67.6593 119.678 70.3789 122.865C73.0942 126.052 76.8413 128.647 81.6287 130.389C87.0051 132.344 92.9749 132.177 98.8818 130.614C104.793 129.052 110.691 126.09 116.076 122.28C121.457 118.466 126.328 113.8 130.142 108.758C133.952 103.707 136.734 98.2847 137.812 92.8665C138.326 90.2598 138.426 87.6448 138.012 85.1174C137.599 82.59 136.659 80.1503 135.155 77.9613C132.13 73.5541 126.963 70.2497 119.564 68.3573C114.727 67.1249 110.073 65.763 105.394 64.0544C104.705 63.8038 103.974 64.326 103.723 64.9485C103.473 65.5709 103.632 66.4523 104.304 66.7531C108.97 68.8209 113.645 70.5379 118.491 72.0919C125.187 74.2558 129.114 77.2929 131.19 80.5848C132.235 82.2432 132.849 83.9894 133.112 85.8692C133.375 87.7491 133.283 89.7585 132.853 91.8807C131.98 96.2838 129.586 101.125 126.127 105.733C122.677 110.345 118.182 114.732 113.236 118.312C108.289 121.892 102.888 124.67 97.6618 126.132C92.4275 127.598 87.4145 127.753 83.0908 126.266C78.8883 124.82 75.7719 122.715 73.491 120.158C71.2184 117.597 69.7606 114.556 69.0128 111.156C67.5089 104.367 68.9668 96.125 72.6096 88.4426C76.244 80.7602 82.0255 73.6544 88.8891 69.0215C95.7653 64.3929 103.665 62.2122 111.769 64.2216C112.245 64.3386 112.709 64.0043 112.83 63.549C112.951 63.0936 112.713 62.5715 112.241 62.442Z" fill="black"/>
<path d="M56.9695 57.5209C56.9194 57.546 56.8693 57.571 56.8192 57.5919C56.6855 57.6462 56.5475 57.6839 56.418 57.7382C56.2843 57.7883 56.1675 57.8635 56.0463 57.9345C48.3848 62.3626 41.567 65.1239 35.6434 67.597C29.7281 70.0742 24.686 72.2549 20.6254 75.6094C16.5607 78.9598 13.5654 83.5174 11.8401 90.4311C10.1106 97.349 9.58847 106.636 10.3237 119.707C10.896 129.996 14.2589 137.432 19.4723 142.7C24.6817 147.968 31.6081 151.025 39.161 152.968C46.718 154.911 54.9393 155.75 62.8682 156.502C70.7929 157.246 78.4418 157.906 84.7498 159.401C90.5064 160.746 96.3924 164.301 102.617 167.217C105.733 168.671 108.95 169.954 112.346 170.651C115.738 171.349 119.323 171.437 123.02 170.459C130.502 168.466 138.28 162.998 145.933 155.579C153.574 148.151 161.047 138.723 167.627 128.659C174.202 118.596 179.875 107.897 183.873 97.9046C187.858 87.8995 190.214 78.6464 189.985 71.1604C189.68 61.5981 185.247 53.2849 178.601 46.7263C170.062 38.2961 157.877 32.5312 145.127 29.7866C132.373 27.0545 119.026 27.3511 108.114 31.4033C108.11 31.4075 108.102 31.4075 108.098 31.4117C103.356 33.2247 98.6858 35.1881 94.0739 37.2685C81.2281 43.071 68.9546 49.9972 57.0362 57.3705C57.0112 57.3997 57.145 57.7173 57.2828 58.0473C57.1784 57.8718 57.074 57.6964 56.9695 57.5209ZM57.2828 58.0473C57.4834 58.3355 57.6838 58.6196 57.7214 58.6154C70.3123 52.5079 82.9576 46.555 95.7867 41.2246C100.394 39.3113 105.04 37.4983 109.731 35.8231C109.723 35.8231 109.719 35.8272 109.71 35.8272C119.577 32.3891 132.081 32.2138 144.016 34.8706C155.955 37.515 167.293 42.9916 174.871 50.5027C180.786 56.3679 184.42 63.3317 184.721 71.3442C184.968 77.5644 182.879 86.3831 179.077 95.9997C175.288 105.633 169.828 116.118 163.495 125.981C157.162 135.849 149.956 145.102 142.704 152.295C135.469 159.497 128.15 164.594 121.896 166.294C118.934 167.109 116.081 167.092 113.165 166.536C110.253 165.981 107.304 164.865 104.313 163.516C98.3183 160.826 92.219 157.175 85.6061 155.683C78.8595 154.184 71.0936 153.641 63.1731 152.997C55.2568 152.362 47.1899 151.64 39.9336 149.877C32.669 148.118 26.2566 145.336 21.5068 140.657C16.7654 135.978 13.5612 129.369 12.8594 119.548C11.9487 106.623 12.3664 97.5287 13.9288 90.9366C15.4954 84.3404 18.1482 80.2547 21.862 77.0882C25.5757 73.9258 30.4342 71.716 36.3161 69.1761C42.1938 66.6362 49.074 63.7579 56.7815 59.1877C56.9026 59.1125 57.028 59.0499 57.1366 58.9538C57.2452 58.866 57.3497 58.7616 57.4583 58.6697C57.5042 58.6321 57.5502 58.5987 57.5962 58.5695C57.4917 58.394 57.3873 58.2186 57.2828 58.0473Z" fill="black"/>
</svg>