<svg width="200" height="200" viewBox="0 0 200 200" fill="none" xmlns="http://www.w3.org/2000/svg" id="Scribble-3.svg" onclick="copyToClipboard(this)">
<path d="M15.2256 170.061C17.1895 173.907 19.1321 176.993 21.1202 179.417C23.1053 181.839 25.1419 183.618 27.3422 184.73C29.5304 185.845 31.9186 186.221 34.1764 185.824C36.4373 185.433 38.5133 184.354 40.4257 182.857C44.2474 179.844 47.6296 175.126 51.0179 169.27C54.3911 163.415 57.7157 156.405 61.0919 148.844C67.8382 133.73 74.7996 116.397 82.4036 102.041C86.201 94.8673 90.1591 88.4423 94.2536 83.4538C98.3419 78.4531 102.564 74.9406 106.713 73.3555C107.761 72.9524 108.81 72.6676 109.865 72.5009C111.932 72.1706 113.704 72.1099 115.199 72.2524C116.693 72.3979 117.902 72.7403 118.905 73.2222C119.905 73.7071 120.714 74.3314 121.424 75.1224C122.13 75.9165 122.733 76.8954 123.233 78.0804C124.242 80.4443 124.803 83.6507 124.933 87.4482C125.069 91.2456 124.794 95.6158 124.279 100.319C123.248 109.733 121.263 120.452 119.948 130.905C118.647 141.37 117.972 151.556 119.775 160.218C120.378 163.103 121.266 165.828 122.551 168.319C123.836 170.807 125.536 173.065 127.709 174.904C129.873 176.75 132.495 178.153 135.483 179.029C138.474 179.908 141.823 180.272 145.56 180.138C151.479 179.938 156.895 177.702 161.519 174.135C166.156 170.562 170.087 165.697 173.463 159.978C180.194 148.538 184.765 133.608 187.401 117.958C190.023 102.311 190.678 85.9632 189.29 71.7281C188.593 64.606 187.386 58.0143 185.61 52.262C183.825 46.5128 181.498 41.5849 178.331 37.8087C170.887 28.9803 162.741 22.7614 154.155 18.9094C145.578 15.0544 136.595 13.5905 127.627 14.0966C118.65 14.5997 109.689 17.0425 100.957 20.9308C92.226 24.8222 83.7159 30.1592 75.6088 36.5206C59.4038 49.2495 44.7929 66.0729 33.4399 83.872C27.7665 92.7701 22.9144 101.917 19.0988 110.93C17.1925 115.44 15.5468 119.916 14.1891 124.313C12.8404 128.714 11.7554 133.033 11.0432 137.245C9.83398 144.392 9.6552 151.205 10.6159 157.396C10.7493 158.275 10.9947 159.239 11.313 160.363C11.6312 161.479 12.0221 162.709 12.4404 163.933C12.8586 165.158 13.3041 166.373 13.7284 167.446C14.1588 168.525 14.5528 169.437 14.9589 170.195C15.0468 170.149 15.1377 170.107 15.2256 170.061ZM20.1989 167.519C20.0383 167.173 19.7322 166.352 19.42 165.382C19.1018 164.403 18.7593 163.248 18.4442 162.085C18.1259 160.924 17.835 159.754 17.6137 158.754C17.3925 157.766 17.241 156.905 17.2167 156.548C16.6924 151.162 17.1258 145.092 18.3472 138.539C19.0685 134.684 20.0474 130.654 21.3324 126.52C22.6144 122.386 24.1782 118.146 25.9996 113.855C29.6456 105.272 34.3188 96.4887 39.7922 87.924C50.736 70.7976 64.8893 54.5654 80.2973 42.4972C87.9982 36.4631 96.0083 31.4685 104.055 27.8923C112.104 24.3131 120.181 22.1522 128.052 21.7189C135.928 21.2855 143.596 22.5523 151.024 25.883C158.446 29.2228 165.656 34.6568 172.475 42.7426C174.688 45.352 176.721 49.4162 178.291 54.5229C179.867 59.6266 181.007 65.7546 181.658 72.4706C182.974 85.9116 182.352 101.701 179.834 116.688C177.327 131.672 172.888 145.871 166.853 156.081C163.844 161.188 160.45 165.279 156.84 168.046C153.212 170.819 149.454 172.307 145.287 172.468C142.211 172.577 139.696 172.265 137.647 171.665C135.595 171.059 134.007 170.18 132.677 169.055C131.352 167.925 130.27 166.528 129.373 164.794C128.476 163.064 127.779 161 127.288 158.645C125.791 151.562 126.197 141.943 127.252 131.739C128.294 121.519 129.934 110.706 130.697 100.92C131.079 96.022 131.24 91.379 130.967 87.1421C130.688 82.9052 129.994 79.0623 128.509 75.7619C127.764 74.1132 126.812 72.6009 125.603 71.3037C124.4 70.0036 122.939 68.9308 121.266 68.167C119.593 67.3972 117.72 66.9365 115.677 66.7699C113.632 66.6032 111.413 66.7274 108.989 67.1305C107.543 67.3699 106.131 67.77 104.758 68.3034C99.3087 70.4309 94.5233 74.6315 90.0894 80.0473C85.6585 85.4752 81.5702 92.1761 77.6818 99.5467C69.9112 114.276 62.9436 131.696 56.2549 146.686C52.9151 154.175 49.648 161.051 46.4325 166.628C43.2351 172.207 40.0377 176.468 37.1677 178.693C35.7372 179.811 34.437 180.414 33.2823 180.611C32.1216 180.796 31.0518 180.66 29.7213 180.005C28.406 179.347 26.8694 178.096 25.2086 176.065C23.5478 174.044 21.7749 171.259 19.9353 167.655C20.0231 167.61 20.111 167.564 20.1989 167.519Z" fill="black"/>
<path d="M15.2732 134.484C23.2014 136.809 29.3688 140.512 34.9817 145.216C40.5914 149.919 45.6224 155.629 51.2019 161.872C51.5837 162.3 52.3566 161.63 51.9868 161.19C46.5801 154.802 41.6795 148.922 36.0727 143.952C30.466 138.985 24.1379 134.933 15.946 132.296C15.3459 132.102 14.7034 132.451 14.5155 133.054C14.3306 133.657 14.6671 134.305 15.2732 134.484Z" fill="black"/>
<path d="M30.9741 96.3039C33.2168 96.6737 36.5718 97.6344 40.3844 98.9588C44.2031 100.283 48.5036 101.968 52.7405 103.793C61.2112 107.433 69.4547 111.633 73.1824 114.552C73.5128 114.809 73.9825 114.239 73.6643 113.964C69.9578 110.763 61.8992 106.151 53.5406 102.05C49.3613 100.001 45.1092 98.086 41.2906 96.5434C37.4659 95.0038 34.0927 93.837 31.556 93.2854C30.7256 93.1035 29.9134 93.6733 29.7528 94.5068C29.5921 95.3402 30.1346 96.1675 30.9741 96.3039Z" fill="black"/>
<path d="M72.8304 45.9882C76.8097 48.7006 82.174 53.8527 87.1595 59.3292C92.148 64.8026 96.7849 70.6185 99.4034 74.6887C99.7125 75.1675 100.573 74.6281 100.276 74.1432C97.7123 69.9214 93.2026 63.9601 88.3141 58.3018C83.4196 52.6435 78.1705 47.3065 74.0154 44.3031C73.5548 43.9697 72.9092 44.0879 72.5819 44.5516C72.2546 45.0183 72.3607 45.6669 72.8304 45.9882Z" fill="black"/>
<path d="M147.269 20.8977C150.999 44.1914 143.886 68.3186 128.709 85.8754C128.382 86.2512 129.051 86.8421 129.385 86.4724C145.084 69.0187 152.9 44.6218 149.542 20.5582C149.454 19.9308 148.863 19.4975 148.235 19.5914C147.608 19.6854 147.169 20.2733 147.269 20.8977Z" fill="black"/>
<path d="M125.408 123.029C131.536 122.944 137.419 121.328 142.95 118.655C148.481 115.979 153.667 112.251 158.449 107.893C164.441 102.447 169.702 95.9191 174.172 89.2304C178.645 82.5357 182.34 75.6803 185.249 69.5159C185.283 69.4492 185.17 69.3886 185.134 69.4522C181.637 75.2984 177.303 81.7113 172.393 87.9363C167.48 94.1644 162.004 100.205 156.179 105.363C151.515 109.481 146.563 112.973 141.404 115.443C136.243 117.913 130.885 119.364 125.357 119.443C124.366 119.455 123.575 120.271 123.59 121.262C123.605 122.253 124.417 123.044 125.408 123.029Z" fill="black"/>
<path d="M124.875 151.923C134.516 155.239 145.147 154.172 155.021 150.296C164.901 146.41 174.054 139.682 180.755 131.475C180.858 131.348 180.637 131.157 180.528 131.281C173.521 139.155 164.198 145.374 154.446 148.732C144.693 152.099 134.549 152.575 125.89 149.159C125.136 148.862 124.281 149.268 124.002 150.032C123.721 150.796 124.105 151.659 124.875 151.923Z" fill="black"/>
</svg>