<svg width="200" height="200" viewBox="0 0 200 200" fill="none" xmlns="http://www.w3.org/2000/svg" id="Scribble-1.svg" onclick="copyToClipboard(this)">
<path d="M20.891 16.8915C33.4615 11.3216 48.3988 11.8896 63.7568 13.4359C79.1149 14.9665 94.8937 17.4595 109.252 15.382C109.989 15.2768 110.462 14.593 110.357 13.8619C110.252 13.1308 109.568 12.626 108.832 12.7364C95.1041 14.8087 79.483 12.4629 64.0198 10.9849C48.5566 9.52278 33.1986 8.91795 19.9444 14.8297C19.4185 15.0612 19.3658 15.7659 19.5761 16.2393C19.7865 16.7179 20.3651 17.1176 20.891 16.8915Z" fill="black"/>
<path d="M16.2099 38.377C30.5686 32.7334 48.3457 31.9339 66.6492 32.0075C84.9526 32.0759 103.677 33.0121 119.982 30.6295C120.928 30.4875 121.612 29.5881 121.454 28.6309C121.297 27.6736 120.403 27.0109 119.456 27.1582C103.677 29.667 85.0052 28.978 66.6492 29.1095C48.2932 29.2567 30.2003 30.2193 15.3156 36.2363C14.7897 36.4572 14.6317 37.1672 14.8421 37.6774C15.0525 38.1823 15.6313 38.5979 16.2099 38.377Z" fill="black"/>
<path d="M20.4153 56.8801C40.5596 52.683 60.0202 52.2569 79.6911 51.0209C99.362 49.7797 119.191 47.7232 139.808 40.0705C141.176 39.5603 141.859 38.0245 141.333 36.6517C140.807 35.279 139.282 34.5794 137.915 35.1054C118.138 42.6739 98.8884 44.9145 79.3752 46.3399C59.8621 47.7757 40.1385 48.3912 19.5734 52.8986C18.5215 53.1301 17.8905 54.2451 18.1009 55.297C18.3112 56.3489 19.3634 57.1063 20.4153 56.8801Z" fill="black"/>
<path d="M18.892 77.8822C71.0673 64.0021 113.144 61.9666 166.582 69.9875C167.949 70.1926 169.212 69.2406 169.422 67.8731C169.632 66.5056 168.686 65.2275 167.318 65.0329C113.302 57.3486 70.331 59.7785 17.9454 74.2162C16.946 74.4844 16.4728 75.5679 16.7358 76.5094C16.9461 77.4509 17.9453 78.1451 18.892 77.8822Z" fill="black"/>
<path d="M22.8364 101.329C32.1459 92.5929 43.8224 87.7015 56.9715 85.1769C70.0679 82.6523 84.5843 82.526 99.4689 83.3202C114.301 84.1092 129.449 85.8185 143.86 86.9231C158.272 88.0171 171.946 88.5167 183.886 86.7863C185.463 86.5601 186.515 85.0717 186.305 83.4938C186.042 81.9159 184.569 80.8219 182.991 81.0744C171.841 82.8679 158.534 82.6207 144.228 81.7371C129.922 80.8587 114.722 79.3703 99.6795 78.7865C84.6371 78.2079 69.7523 78.5393 56.1825 81.3532C42.6127 84.167 30.3052 89.5056 20.5749 98.9255C19.26 100.198 21.5215 102.581 22.8364 101.329Z" fill="black"/>
<path d="M18.9441 122.42C22.2051 117.802 29.3052 114.326 39.0354 111.791C43.9794 110.497 49.6073 109.361 55.7085 108.461C61.8622 107.567 68.4366 106.894 75.3267 106.405C89.0542 105.421 103.886 105.179 118.298 105.348C147.068 105.684 174.05 107.688 186.778 108.803C188.408 108.945 189.828 107.73 189.986 106.1C190.144 104.464 188.934 103.028 187.304 102.891C174.47 101.818 147.331 99.8776 118.351 99.7409C103.834 99.6778 88.844 100.067 74.906 101.245C67.9107 101.839 61.2314 102.623 54.9724 103.654C48.7135 104.68 42.9278 105.931 37.7734 107.567C32.7768 109.156 28.4112 111.044 24.7821 113.253C21.2056 115.467 18.4178 118.013 16.6821 120.948C15.8932 122.231 18.05 123.641 18.9441 122.42Z" fill="black"/>
<path d="M12.2645 141.087C28.0959 128.726 48.4502 124.861 69.8042 123.788C91.1582 122.709 113.406 124.44 132.919 123.004C134.129 122.915 135.076 121.831 134.971 120.6C134.866 119.37 133.814 118.444 132.552 118.549C113.565 120.195 91.2637 118.739 69.5941 120.08C47.9772 121.431 26.8862 125.597 10.4236 138.751C9.1613 139.777 11.0022 142.096 12.2645 141.087Z" fill="black"/>
<path d="M14.4733 156.681C30.3573 149.533 46.9249 146.572 64.0712 144.247C71.6976 143.227 79.3766 141.607 87.1082 139.835C87.4238 139.75 87.6867 139.435 87.6341 139.088C87.5815 138.741 87.2658 138.499 86.8976 138.509C79.0082 138.777 71.1714 138.919 63.4924 139.977C46.2409 142.322 29.2002 145.652 12.8954 153.341C12.0538 153.73 11.9483 154.888 12.3165 155.64C12.6847 156.397 13.6317 157.06 14.4733 156.681Z" fill="black"/>
<path d="M19.2595 172.197C29.4632 166.086 40.9818 162.814 52.7633 159.764C58.8645 158.186 64.9653 156.14 70.856 153.81C71.2768 153.652 71.4348 153.184 71.3296 152.8C71.2244 152.416 70.8037 152.116 70.383 152.2C64.2292 153.421 57.9704 154.33 51.8167 155.871C39.93 158.843 27.9905 162.183 17.1557 168.658C16.209 169.241 15.8935 170.509 16.472 171.487C17.0506 172.466 18.3128 172.781 19.2595 172.197Z" fill="black"/>
<path d="M17.1028 189.591C27.622 185.131 38.1412 180.671 48.6604 176.21C48.976 176.079 49.081 175.669 48.9758 175.374C48.8706 175.08 48.5024 174.838 48.1869 174.948C37.4047 178.677 26.5701 182.412 15.7879 186.146C14.7886 186.477 14.3675 187.576 14.6831 188.528C15.0513 189.48 16.1561 189.985 17.1028 189.591Z" fill="black"/>
</svg>