<svg width="200" height="200" viewBox="0 0 200 200" fill="none" xmlns="http://www.w3.org/2000/svg" id="Scribble-36.svg" onclick="copyToClipboard(this)">
<path d="M44.139 91.7206C39.8314 92.1904 35.2706 92.3871 30.8307 93.366C27.3225 94.1401 24.5274 95.6216 22.4397 97.6018C20.3462 99.5802 18.9774 102.038 18.224 104.683C16.7287 109.982 17.6086 116.013 19.9091 121.2C22.2211 126.375 25.9536 130.775 30.5949 132.608C32.9126 133.515 35.4834 133.728 38.0484 132.969C40.6135 132.216 43.1268 130.528 45.479 127.822C50.1145 122.465 53.4158 113.77 53.7896 105.308C53.9679 101.078 53.3985 96.8967 51.7709 93.2366C50.1433 89.5817 47.4 86.4547 43.4144 84.5655C39.6761 82.7763 35.9607 82.5549 32.5848 83.4469C29.1973 84.3326 26.1492 86.2546 23.3943 88.6362C17.9077 93.4063 13.5138 100.088 10.2873 104.893C9.76399 105.668 9.97675 106.721 10.7532 107.24C11.5296 107.758 12.5821 107.551 13.0997 106.772C16.2916 101.949 20.559 95.4704 25.551 91.1104C28.0413 88.9272 30.6869 87.2916 33.4072 86.5721C36.1276 85.8589 38.9227 85.9849 42.0513 87.4411C45.3353 88.9893 47.515 91.4342 48.9183 94.5168C50.3158 97.5943 50.8737 101.315 50.7299 105.186C50.4596 112.925 47.3079 121.219 43.2533 125.893C41.1886 128.29 39.1412 129.608 37.2203 130.184C35.2994 130.755 33.4533 130.622 31.6301 129.929C28.0011 128.562 24.5561 124.745 22.4569 120.058C20.3462 115.382 19.5756 109.904 20.8408 105.42C21.4677 103.173 22.5834 101.17 24.2858 99.5417C25.9882 97.9146 28.2944 96.6413 31.4058 95.9345C35.5352 94.9959 40.0097 94.7681 44.4208 94.2695C45.1225 94.1901 45.6171 93.55 45.5365 92.8553C45.4618 92.16 44.8349 91.6441 44.139 91.7206Z" fill="black"/>
<path d="M86.2711 146.231C80.7384 148.566 73.4401 152.563 68.7356 158.09C66.3949 160.857 64.6809 164.065 64.3704 167.682C64.0541 171.297 65.2274 175.204 68.2352 179.08C69.8801 181.203 71.6112 182.781 73.4286 183.85C75.2402 184.919 77.1496 185.462 79.0245 185.513C82.7973 185.613 86.2366 183.826 89.1409 181.275C92.051 178.707 94.4953 175.31 96.3529 171.764C98.2048 168.212 99.4701 164.527 99.8957 161.259C100.413 157.265 100.454 153.98 100.045 151.257C99.6311 148.543 98.7684 146.344 97.3594 144.707C96.0078 143.126 94.1502 142.194 92.2293 141.917C90.2969 141.63 88.2955 141.906 86.2596 142.525C82.205 143.776 77.9318 146.426 73.8139 149.733C65.5954 156.354 58.0958 165.633 55.6343 171.771C55.4158 172.325 56.3532 172.747 56.6177 172.214C59.4301 166.637 67.6371 158.219 75.8613 152.449C79.9619 149.56 84.0913 147.341 87.3983 146.46C89.0546 146.013 90.4809 145.909 91.5622 146.1C92.6549 146.302 93.4083 146.71 94.1042 147.506C94.8174 148.336 95.4673 149.72 95.8008 151.902C96.1401 154.075 96.1459 157.001 95.6916 160.728C95.381 163.332 94.3055 166.675 92.6836 169.871C91.0618 173.073 88.8936 176.144 86.4954 178.325C84.0914 180.523 81.5435 181.767 79.0992 181.744C77.8627 181.733 76.6033 181.426 75.2517 180.675C73.9002 179.925 72.4624 178.715 70.99 176.903C68.3157 173.596 67.4416 170.664 67.5911 167.915C67.7406 165.168 69.0001 162.487 71.0131 159.967C75.0217 154.922 81.9634 150.759 87.2085 148.38C87.7491 148.137 87.8469 147.408 87.6284 146.916C87.4156 146.423 86.8117 146.002 86.2711 146.231Z" fill="black"/>
<path d="M87.9752 37.0145C85.9737 39.1068 82.8508 41.6747 80.0615 44.5215C77.2836 47.3845 74.7531 50.5045 74.1032 54.11C73.2003 59.201 74.3908 63.3643 76.9961 66.2433C79.5841 69.127 83.3684 70.6879 87.4231 71.255C91.4834 71.818 95.8716 71.3976 99.8917 70.1513C103.9 68.8958 107.564 66.8265 110.094 63.8709C111.958 61.6757 113.746 58.524 115.288 54.8444C116.823 51.1671 118.089 46.9773 118.756 42.7691C119.423 38.5604 119.503 34.3321 118.543 30.5357C118.06 28.6395 117.306 26.8469 116.196 25.2682C115.086 23.6906 113.608 22.3396 111.791 21.3798C109.882 20.367 107.627 19.7907 105.062 19.6889C98.9427 19.4336 93.5596 21.6483 89.1599 25.1871C84.7372 28.7304 81.1887 33.5752 78.3073 38.883C72.5446 49.5032 69.4102 62.0426 67.8401 70.2508C67.8114 70.4026 68.0702 70.4642 68.1162 70.3158C70.4109 62.3049 74.7243 50.1836 80.9701 40.4543C84.0815 35.5876 87.6761 31.3351 91.6559 28.4543C95.653 25.5684 99.9319 24.0305 104.849 24.2887C106.851 24.3992 108.392 24.8386 109.617 25.4838C110.779 26.1038 111.676 26.9159 112.406 27.9448C113.137 28.9725 113.695 30.2298 114.08 31.6865C114.845 34.5961 114.862 38.2866 114.304 42.0905C113.752 45.8949 112.642 49.8121 111.291 53.2162C109.951 56.6169 108.34 59.5207 106.937 61.2363C105.16 63.4419 102.163 65.3277 98.707 66.5004C95.2505 67.6817 91.3511 68.1631 87.8544 67.7806C84.3519 67.4028 81.298 66.172 79.3195 64.0976C77.3584 62.0191 76.2427 59.0583 76.8465 54.5384C77.1571 51.9768 79.2218 48.9822 81.8041 46.1721C84.3806 43.3471 87.3942 40.6849 89.4532 38.3787C90.1951 37.5499 88.7458 36.2116 87.9752 37.0145Z" fill="black"/>
<path d="M107.564 95.9683C106.374 97.1117 105.408 98.7968 104.579 100.709C103.757 102.62 103.107 104.748 102.728 106.72C102.36 108.7 102.233 110.485 102.607 111.904C102.802 112.603 103.17 113.31 103.912 113.713C104.66 114.114 105.528 114.009 106.293 113.668C108.364 112.749 110.158 111.067 111.561 109.069C112.965 107.068 113.965 104.739 114.357 102.455C114.742 100.177 114.523 97.9071 113.333 96.1242C112.148 94.335 110.009 93.1853 106.972 93.0548C98.0231 92.6401 91.3114 96.8857 86.3481 102.879C81.3791 108.881 78.0836 116.67 75.8809 123.606C78.2791 116.738 81.8104 109.066 86.8657 103.32C91.9325 97.5649 98.4487 93.7743 106.891 94.4075C109.641 94.6254 111.188 95.6279 112.039 96.9697C112.884 98.3183 113.063 100.158 112.666 102.142C112.269 104.12 111.303 106.206 110.003 107.946C108.709 109.689 107.087 111.074 105.465 111.724C105.247 111.813 105.097 111.836 105.017 111.834C104.942 111.832 104.942 111.819 104.942 111.817C104.942 111.813 104.925 111.805 104.879 111.732C104.833 111.662 104.775 111.529 104.729 111.338C104.522 110.562 104.614 108.955 105.017 107.189C105.408 105.414 106.075 103.439 106.868 101.733C107.656 100.029 108.605 98.5823 109.364 97.9215C109.922 97.4401 109.945 96.5883 109.445 96.0489C108.95 95.51 108.094 95.4599 107.564 95.9683Z" fill="black"/>
<path d="M166.543 51.0473C159.641 51.9606 147.776 54.7844 138.873 60.2406C134.433 62.9759 130.695 66.3904 128.82 70.6912C126.934 74.9908 127.095 80.122 130.149 85.7415C131.201 87.6924 132.478 89.1175 133.939 90.0389C135.4 90.9625 137.022 91.3565 138.655 91.3283C141.933 91.2644 145.263 89.6443 148.415 87.3973C151.566 85.1423 154.54 82.2201 156.967 79.387C159.4 76.5488 161.28 73.8181 162.252 71.8667C164.081 68.1693 165.076 64.9698 165.358 62.2472C165.645 59.5286 165.208 57.2661 164.139 55.5367C163.075 53.8044 161.384 52.6622 159.348 52.1314C157.312 51.5971 154.931 51.6414 152.337 52.2205C141.985 54.5527 128.055 65.4202 119.929 84.9312C119.751 85.3597 120.521 85.6846 120.7 85.2584C128.953 66.0591 142.871 55.6402 152.636 53.6008C155.069 53.0861 157.231 53.0953 158.962 53.5744C160.694 54.0575 161.976 54.9777 162.81 56.3499C163.632 57.7245 164.018 59.608 163.73 62.0678C163.443 64.5241 162.488 67.5372 160.676 71.0771C159.802 72.8013 157.944 75.4514 155.558 78.162C153.171 80.8772 150.255 83.6699 147.259 85.7576C144.262 87.8534 141.191 89.2038 138.632 89.198C137.349 89.1992 136.193 88.8944 135.118 88.1991C134.042 87.5009 133.024 86.3868 132.133 84.6856C129.413 79.448 129.441 75.2732 131.04 71.6683C132.651 68.0646 136.004 64.975 140.219 62.4589C148.633 57.4122 160.337 54.7407 166.911 53.9695C167.716 53.8746 168.285 53.1327 168.187 52.3264C168.084 51.5195 167.348 50.9409 166.543 51.0473Z" fill="black"/>
<path d="M176.602 123.814C171.408 123.851 163.639 124.534 157.019 127.199C153.718 128.539 150.675 130.387 148.461 133.005C146.235 135.612 144.918 139.031 145.102 143.103C145.194 145.569 146.523 147.584 148.294 149.029C150.071 150.492 152.332 151.516 154.718 152.269C159.498 153.761 164.783 154.157 167.889 153.886C173.364 153.421 177.154 150.503 179.086 146.529C181.036 142.56 181.324 137.635 180.461 132.727C179.587 127.816 177.545 122.903 174.623 118.958C171.702 115.022 167.883 112.025 163.426 111.158C157.927 110.088 153.068 111.125 148.892 113.49C144.705 115.853 141.174 119.504 138.086 123.7C131.915 132.092 127.504 142.725 123.685 149.957C123.345 150.601 124.501 151.219 124.846 150.58C128.792 143.312 133.335 132.795 139.443 124.712C142.491 120.67 145.925 117.253 149.807 115.13C153.689 113.01 157.997 112.147 163.023 113.176C166.784 113.949 170.183 116.601 172.829 120.271C175.475 123.931 177.344 128.579 178.086 133.132C178.839 137.687 178.454 142.128 176.786 145.375C175.089 148.617 172.323 150.765 167.653 151.162C165.036 151.377 159.889 150.933 155.604 149.514C153.453 148.812 151.515 147.863 150.198 146.743C148.875 145.604 148.202 144.425 148.15 142.992C148.064 139.617 149.099 137.129 150.871 135.066C152.648 133.013 155.242 131.425 158.238 130.259C164.219 127.915 171.707 127.311 176.602 127.349C177.579 127.357 178.367 126.559 178.367 125.582C178.367 124.605 177.579 123.806 176.602 123.814Z" fill="black"/>
<path d="M80.983 100.788C77.9636 103.107 73.1901 107.11 70.4985 111.664C69.1585 113.943 68.3073 116.419 68.6581 118.934C69.009 121.456 70.625 123.815 73.6502 125.691C76.0369 127.181 78.9701 127.309 81.8859 126.643C84.8076 125.971 87.7752 124.491 90.3748 122.544C92.9743 120.594 95.2058 118.177 96.5976 115.573C97.9893 112.977 98.5472 110.138 97.627 107.484C97.0117 105.686 95.9649 104.44 94.6019 103.824C93.2504 103.204 91.6917 103.208 90.0469 103.588C86.7687 104.358 83.0074 106.638 79.2691 109.418C71.8155 114.977 64.5345 122.596 62.7631 124.301C62.4468 124.611 62.9932 125.19 63.321 124.887C65.1384 123.192 72.5402 115.738 79.9823 110.397C83.6976 107.726 87.4416 105.599 90.3632 104.986C91.8241 104.674 93.0376 104.742 93.9635 105.19C94.8837 105.641 95.6199 106.467 96.1202 107.991C96.8161 110.114 96.3617 112.442 95.0792 114.746C93.8024 117.04 91.6975 119.256 89.2532 121.019C86.809 122.783 84.0254 124.092 81.4431 124.632C78.8493 125.178 76.5143 124.943 74.8292 123.835C72.2066 122.11 71.2059 120.367 70.9816 118.623C70.763 116.872 71.39 114.916 72.6092 112.933C75.0305 108.965 79.6832 105.13 82.6278 102.976C83.2374 102.53 83.3525 101.666 82.8982 101.062C82.4438 100.457 81.5811 100.328 80.983 100.788Z" fill="black"/>
<path d="M126.886 131.312C120.405 133.241 114.832 137.51 112.721 142.849C111.674 145.515 111.554 148.473 112.698 151.36C113.843 154.252 116.206 157.044 119.991 159.586C121.072 160.32 122.216 160.643 123.309 160.547C124.402 160.455 125.397 159.971 126.282 159.27C128.042 157.86 129.469 155.573 130.688 153.021C133.115 147.918 134.651 141.724 135.088 139.518C135.743 136.199 135.824 133.935 135.358 132.405C135.122 131.644 134.72 131.044 134.15 130.687C133.581 130.328 132.896 130.245 132.201 130.344C130.803 130.55 129.216 131.422 127.421 132.718C125.633 134.018 123.66 135.757 121.618 137.738C113.469 145.656 104.25 157.446 102.392 160.034C102.271 160.2 102.564 160.415 102.685 160.252C104.572 157.722 114.015 146.091 122.239 138.389C124.293 136.464 126.271 134.785 128.019 133.563C129.768 132.337 131.303 131.583 132.35 131.464C132.873 131.401 133.247 131.482 133.523 131.664C133.805 131.848 134.047 132.166 134.219 132.749C134.564 133.909 134.507 136.048 133.805 139.25C133.345 141.352 131.706 147.485 129.279 152.334C128.077 154.757 126.662 156.852 125.236 157.93C124.523 158.474 123.838 158.759 123.177 158.803C122.515 158.841 121.825 158.663 121.009 158.098C117.477 155.635 115.47 153.075 114.561 150.643C113.653 148.207 113.797 145.869 114.705 143.644C116.511 139.2 121.624 135.301 127.565 133.677C128.221 133.498 128.595 132.81 128.41 132.157C128.221 131.503 127.536 131.118 126.886 131.312Z" fill="black"/>
<path d="M38.4166 150.985C36.1851 158.907 33.9536 166.829 31.7279 174.75C31.6474 175.025 31.7337 175.317 31.935 175.495C32.1305 175.678 32.4238 175.74 32.6769 175.645C34.5 174.961 36.7315 173.251 39.032 170.958C41.3152 168.666 43.6272 165.79 45.4273 162.788C47.2217 159.786 48.51 156.661 48.7055 153.834C48.9126 151.017 47.9406 148.444 45.3008 146.874C42.6898 145.293 39.9579 145.654 37.4216 147.108C34.8738 148.561 32.4468 151.091 30.2268 153.982C25.7869 159.764 22.1924 167.01 20.5245 169.987C20.4958 170.047 20.5993 170.106 20.6338 170.048C22.3534 167.098 26.0917 159.922 30.6007 154.274C32.8494 151.451 35.2994 149.014 37.7437 147.685C40.1995 146.357 42.5632 146.121 44.8809 147.563C47.2159 149.047 47.9636 151.173 47.7565 153.761C47.5322 156.34 46.2555 159.326 44.4611 162.2C42.6667 165.074 40.3548 167.841 38.1003 170.015C35.8573 172.189 33.6316 173.772 32.1823 174.265C32.4986 174.564 32.8149 174.862 33.1312 175.161C35.5122 167.282 37.8875 159.404 40.2685 151.526C40.4238 151.016 40.1247 150.479 39.6129 150.329C39.101 150.18 38.5603 150.472 38.4166 150.985Z" fill="black"/>
<path d="M58.878 52.3511C49.2562 54.2904 42.533 57.07 37.4719 61.7308C32.4166 66.3916 29.0981 72.8209 26.0155 81.9596C25.8314 82.5036 26.7919 82.8441 26.9932 82.3058C30.3059 73.3143 33.7336 67.2152 38.5992 62.9851C43.4647 58.7545 49.8313 56.2815 59.3036 54.6407C59.9362 54.5308 60.356 53.9137 60.2353 53.2817C60.1145 52.649 59.5049 52.224 58.878 52.3511Z" fill="black"/>
<path d="M151.59 15.0585C148.334 16.2536 142.221 18.1234 137.603 21.1036C135.296 22.6007 133.329 24.3847 132.323 26.6099C131.299 28.8333 131.38 31.4846 132.984 34.2889C133.812 35.7411 134.738 36.7314 135.785 37.2882C136.832 37.8477 137.976 37.9254 139.046 37.6459C141.203 37.0777 143.187 35.2643 145.033 33.0294C148.697 28.5446 151.676 22.2665 152.4 20.0851C152.498 19.7791 152.28 19.4415 151.963 19.4133C142.813 18.5961 135.785 22.7335 130.258 28.7263C124.714 34.7254 120.613 42.6086 117.237 49.4888C117.174 49.6159 117.404 49.7292 117.468 49.6032C120.947 42.7817 125.174 34.9865 130.724 29.1657C136.285 23.3386 143.106 19.5146 151.866 20.4307C151.722 20.207 151.572 19.9827 151.428 19.759C150.744 21.7547 147.656 27.9948 144.067 32.2271C142.284 34.3504 140.352 35.9452 138.718 36.3174C137.902 36.5071 137.183 36.4375 136.458 36.0436C135.739 35.6468 134.986 34.8761 134.273 33.5717C132.898 31.0256 132.944 29.0513 133.766 27.2724C134.595 25.4953 136.332 23.901 138.517 22.5403C142.888 19.8056 148.898 18.0463 152.239 16.8857C152.746 16.7097 153.01 16.1501 152.826 15.6457C152.648 15.1413 152.09 14.8739 151.59 15.0585Z" fill="black"/>
<path d="M180.569 86.8633C180.391 87.692 180.218 88.5208 180.04 89.3519C179.816 90.4158 178.895 94.4158 178.803 97.9908C178.769 99.7892 178.895 101.483 179.591 102.818C179.936 103.479 180.494 104.073 181.265 104.353C182.03 104.637 182.892 104.582 183.79 104.277C185.699 103.62 187.016 101.983 187.959 99.9985C188.903 98.0005 189.483 95.5827 189.777 93.1011C190.07 90.62 190.07 88.0785 189.8 85.8401C189.518 83.5983 189.006 81.6722 188.097 80.3259C186.941 78.6086 185.331 77.6861 183.663 77.5101C181.995 77.3243 180.327 77.7902 178.757 78.5418C175.629 80.0613 172.811 82.7598 171.269 84.7819C167.583 89.6498 164.862 95.2745 161.895 100.386C161.613 100.871 161.78 101.493 162.269 101.774C162.752 102.056 163.373 101.89 163.655 101.404C166.663 96.2004 169.354 90.6511 172.88 86.0023C174.214 84.2258 176.923 81.6492 179.632 80.3558C180.983 79.7007 182.317 79.3758 183.439 79.5075C184.56 79.6495 185.527 80.1516 186.441 81.4606C187.039 82.3095 187.568 84.0274 187.81 86.0817C188.063 88.1395 188.063 90.5464 187.793 92.8681C187.522 95.1893 186.97 97.43 186.159 99.1473C185.348 100.879 184.296 102.015 183.151 102.392C182.536 102.601 182.174 102.568 181.949 102.488C181.731 102.403 181.541 102.248 181.34 101.88C180.937 101.157 180.736 99.6764 180.788 98.0396C180.868 94.7436 181.748 90.8259 181.972 89.7642C182.151 88.9349 182.329 88.1061 182.501 87.2768C182.731 86.2094 180.799 85.7959 180.569 86.8633Z" fill="black"/>
</svg>