<svg width="200" height="200" viewBox="0 0 200 200" fill="none" xmlns="http://www.w3.org/2000/svg" id="Scribble-46.svg" onclick="copyToClipboard(this)">
<path d="M10.0061 92.3184C10.1357 92.8922 10.2381 94.4225 10.3693 96.3331C10.5018 98.2483 10.6683 100.562 10.9452 102.787C11.2235 105.012 11.6059 107.141 12.2009 108.726C12.502 109.521 12.8508 110.186 13.3259 110.673C13.5641 110.915 13.8403 111.113 14.1598 111.231C14.4777 111.352 14.8353 111.381 15.1857 111.313C15.5781 111.233 15.8635 110.999 16.1103 110.723C16.3572 110.443 16.5749 110.097 16.7892 109.683C17.2148 108.858 17.6208 107.76 18.0218 106.458C18.8214 103.855 19.5895 100.435 20.2754 96.907C21.6468 89.8498 22.6798 82.385 22.9161 80.3127C22.2132 80.365 21.5102 80.4151 20.8072 80.4674C22.8665 89.2235 22.4507 98.9248 22.3409 108.152C22.3332 108.799 22.81 109.405 23.4351 109.546C24.0548 109.708 24.7564 109.391 25.0609 108.79C25.4904 107.938 25.896 106.82 26.3389 105.447C26.7789 104.076 27.2443 102.464 27.7378 100.696C28.7243 97.1644 29.8224 93.0152 31.0137 89.0665C32.2019 85.1222 33.4947 81.3647 34.8105 78.7049C35.4625 77.3772 36.1284 76.3274 36.697 75.708C36.9783 75.396 37.2301 75.1956 37.4062 75.0954C37.5865 74.9952 37.6706 74.9883 37.7152 74.9883C37.7152 74.9929 37.6731 74.9792 37.7186 75.002C37.7592 75.0248 37.8748 75.1113 38.0272 75.3003C38.3374 75.6761 38.7457 76.4549 39.1135 77.5048C39.8656 79.6112 40.5083 82.7698 41.0931 86.2905C41.6815 89.8157 42.2267 93.7212 42.8552 97.4491C43.4863 101.182 44.1924 104.725 45.1496 107.613C45.5035 108.676 45.8922 109.653 46.3433 110.532C46.7965 111.409 47.3084 112.194 47.959 112.857C48.3831 113.287 48.9875 113.486 49.5575 113.406C50.1286 113.335 50.6619 112.991 50.9607 112.465C51.5854 111.363 52.1178 110.036 52.5962 108.51C53.0726 106.986 53.4878 105.267 53.831 103.418C54.516 99.7195 54.9138 95.502 54.8717 91.3483C54.8257 87.1923 54.3504 83.109 53.2116 79.6476C52.6388 77.9169 51.8976 76.3365 50.9158 74.9861C49.9371 73.638 48.6971 72.5176 47.1798 71.8207C46.7036 71.6021 46.1762 71.6043 45.728 71.791C45.2778 71.9755 44.9048 72.349 44.728 72.8272C42.4649 78.9485 41.9204 86.2494 42.3221 93.5094C42.7304 100.769 44.1045 107.986 45.8175 113.898C45.9345 114.301 46.1878 114.624 46.5134 114.827C46.8377 115.034 47.2367 115.118 47.617 115.064C47.9978 115.009 48.3564 114.816 48.6087 114.524C48.8631 114.237 49.015 113.857 49.013 113.451C49.0029 111.525 48.8112 108.382 48.3544 104.702C47.8971 101.027 47.1752 96.8319 46.091 92.849C45.0018 88.8638 43.5687 85.0903 41.5809 82.2164C40.5837 80.7817 39.4382 79.5634 38.0809 78.7003C36.7298 77.835 35.1449 77.3521 33.4549 77.4273C31.8781 77.4956 30.42 78.1333 29.1292 79.0943C27.8335 80.0599 26.6707 81.3556 25.5938 82.8768C23.4465 85.9215 21.6352 89.8908 20.1638 94.081C18.6959 98.2712 17.5798 102.673 16.8951 106.56C16.5528 108.503 16.3187 110.316 16.2053 111.917C16.093 113.52 16.0964 114.902 16.2549 116.034C16.3087 116.419 16.5339 116.751 16.8459 116.94C17.1556 117.134 17.552 117.186 17.9139 117.063C19.9559 116.373 21.9433 115.036 23.9414 113.294C25.9369 111.55 27.9393 109.387 29.9422 106.986C31.9444 104.586 33.9445 101.951 35.915 99.2686C37.8876 96.586 39.8189 93.851 41.7077 91.2777C44.5814 87.3631 47.3624 83.8151 49.795 81.3283C51.0076 80.0872 52.136 79.1147 53.0884 78.509C53.5632 78.2061 53.9915 77.9943 54.3461 77.8736C54.7023 77.7529 54.9771 77.7211 55.1739 77.7371C55.5717 77.7644 55.8946 77.8804 56.2535 78.115C56.6081 78.3496 56.9891 78.7254 57.3669 79.2605C58.1277 80.3286 58.8348 82.0251 59.382 84.0974C60.4911 88.2466 61.0092 93.8533 61.1524 99.1479C61.2455 102.527 61.1993 105.791 61.0176 108.482C60.9269 109.826 60.8024 111.028 60.6507 112.019C60.502 113.005 60.3164 113.786 60.1581 114.226C61.0271 113.932 61.8961 113.638 62.7652 113.342C62.1268 113 61.4733 112.379 60.847 111.432C60.2212 110.491 59.6369 109.241 59.1165 107.765C58.0708 104.811 57.2774 100.967 56.6056 96.8023C56.1315 93.8441 55.7093 90.7174 55.2126 87.6067C54.7184 84.4937 54.1619 81.3898 53.4463 78.4635C52.7301 75.5372 51.8566 72.7862 50.7082 70.3677C49.559 67.9515 48.1312 65.8543 46.2725 64.2966C45.9557 64.0324 45.5333 63.9413 45.1548 64.037C44.775 64.1281 44.4423 64.4036 44.2851 64.7816C43.1365 67.5508 41.8767 71.6727 40.8845 76.3889C39.8943 81.1029 39.1768 86.3975 39.1558 91.4781C39.1403 96.5586 39.8021 101.432 41.6952 105.331C42.6434 107.275 43.9137 108.981 45.5729 110.281C47.2292 111.582 49.2682 112.463 51.6548 112.798C53.3113 113.032 54.927 112.862 56.443 112.356C57.9608 111.851 59.3795 111.022 60.7056 109.956C63.3563 107.824 65.6614 104.752 67.7164 101.2C71.0175 95.4815 73.6601 88.4903 75.6907 82.0821C77.7188 75.6761 79.1278 69.8531 79.9118 66.5169C80.0487 65.9362 79.7304 65.3123 79.197 65.0937C78.6728 64.8545 78.0001 65.0458 77.6676 65.5445C75.3468 69.0219 69.502 78.402 64.352 87.814C61.7775 92.5211 59.3795 97.2281 57.6821 101.229C56.8331 103.233 56.1586 105.057 55.7236 106.645C55.5064 107.439 55.3488 108.175 55.2636 108.858C55.18 109.544 55.1636 110.172 55.2663 110.78C55.3292 111.151 55.5546 111.472 55.8619 111.659C56.1675 111.851 56.5553 111.907 56.9183 111.794C58.1364 111.418 59.5972 110.707 61.3314 109.758C63.0601 108.808 65.0417 107.615 67.1926 106.285C71.4923 103.623 76.4682 100.403 81.3418 97.4741C86.2108 94.5478 90.9912 91.9153 94.8004 90.4533C96.6992 89.7177 98.3577 89.2851 99.5731 89.219C100.18 89.1826 100.669 89.2372 101.021 89.3442C101.376 89.4535 101.592 89.597 101.772 89.7951C101.992 89.0482 102.212 88.3035 102.431 87.5565C90.0159 90.9292 75.3168 89.3557 62.6335 86.5045C62.4605 87.4519 62.2874 88.3992 62.1143 89.3466C63.1489 89.4923 64.692 90.0252 66.5022 90.8928C68.3171 91.7582 70.4168 92.9469 72.679 94.3679C77.2065 97.2122 82.3884 100.988 87.4084 105.003C92.4289 109.018 97.2922 113.276 101.194 117.075C103.145 118.974 104.855 120.759 106.218 122.333C107.58 123.902 108.596 125.273 109.137 126.257C109.611 125.482 110.085 124.71 110.559 123.936C109.554 123.902 108.033 123.547 106.282 122.895C104.526 122.248 102.524 121.317 100.445 120.178C96.2852 117.901 91.8129 114.793 88.2382 111.491C86.4508 109.84 84.8877 108.143 83.6987 106.501C82.5068 104.864 81.6997 103.279 81.3647 101.91C81.1951 101.225 81.1393 100.596 81.1869 100.022C81.2356 99.4462 81.3827 98.9224 81.6492 98.41C82.1784 97.3989 83.2371 96.3605 85.1963 95.4337C86.4392 94.853 87.6741 94.7346 89.0111 95.001C90.3415 95.2675 91.7623 95.9528 93.1614 97.0163C95.9655 99.1342 98.6251 102.75 100.367 106.918C102.119 111.085 102.959 115.792 102.362 120.065C102.065 122.205 101.417 124.237 100.361 126.081C99.3026 127.928 97.8378 129.595 95.8493 131.014C95.6494 131.157 95.4221 131.312 95.2046 131.437C94.9897 131.565 94.7817 131.654 94.6815 131.679C94.6567 131.685 94.6394 131.69 94.6314 131.69C94.6276 131.692 94.628 131.692 94.6269 131.692C94.628 131.692 94.6314 131.69 94.6378 131.69C94.6617 131.69 94.736 131.692 94.8325 131.727C94.9282 131.758 95.0363 131.827 95.0964 131.89C95.1272 131.92 95.1475 131.947 95.1575 131.961C95.1625 131.97 95.165 131.975 95.1657 131.975C95.165 131.975 95.165 131.975 95.162 131.968C94.8564 131.291 94.6387 130.123 94.621 128.645C94.5975 127.167 94.7533 125.382 95.0673 123.417C95.6938 119.484 96.9481 114.836 98.5506 110.291C100.152 105.743 102.104 101.286 104.096 97.7155C105.091 95.9301 106.096 94.3679 107.052 93.1404C108.004 91.9107 108.92 91.0203 109.625 90.5739C109.693 90.5307 109.76 90.4897 109.824 90.4533C110.388 90.1345 110.891 89.9796 111.413 89.909C111.933 89.8407 112.481 89.8658 113.088 89.9728C114.301 90.1823 115.721 90.7494 117.31 91.3005C118.899 91.8425 120.685 92.3661 122.676 92.2864C124.667 92.2158 126.797 91.4826 128.88 89.7975C130.445 88.5518 131.399 86.9805 131.798 85.3431C132.203 83.7012 132.088 82.0205 131.678 80.4151C130.843 77.2041 128.859 74.2323 126.796 72.1987C126.67 72.0757 126.544 71.955 126.418 71.8366C122.608 68.2249 118.535 66.2551 114.428 65.6766C110.326 65.0937 106.235 65.9066 102.503 67.7011C95.0461 71.2923 88.9294 78.7732 86.684 87.133C85.5775 91.2708 85.4274 95.6204 86.5451 99.7104C87.6559 103.798 90.0605 107.597 93.8601 110.555C95.9317 112.174 98.089 113.224 100.255 113.747C102.42 114.271 104.584 114.271 106.666 113.852C110.836 113.01 114.671 110.557 118.029 107.273C122.586 102.789 126.361 96.7431 128.443 90.4715C129.478 87.3357 130.082 84.1452 130.098 81.0755C130.113 78.008 129.538 75.0498 128.183 72.4651C127.928 71.98 127.647 71.5087 127.339 71.0532C127.084 70.6775 126.7 70.4293 126.283 70.3405C125.868 70.2471 125.419 70.3177 125.052 70.5363C124.683 70.7504 124.401 71.1056 124.278 71.5133C124.152 71.9209 124.181 72.3763 124.383 72.7817C126.27 76.5437 127.777 81.8407 129.685 86.9554C130.644 89.5174 131.71 92.0405 133.019 94.3338C134.33 96.627 135.888 98.6993 137.865 100.302C138.282 100.642 138.828 100.756 139.319 100.635C139.812 100.521 140.247 100.173 140.466 99.6808C141.509 97.3466 141.543 94.8825 140.931 92.6235C140.322 90.3576 139.109 88.2512 137.615 86.3429C134.614 82.533 130.481 79.4723 127.13 77.7894C126.694 77.5708 126.193 77.5639 125.771 77.7438C125.347 77.9192 125.002 78.2836 124.854 78.7436C124.21 80.7521 124.052 82.7675 124.292 84.6873C124.532 86.607 125.163 88.4288 126.072 90.0958C127.897 93.4252 130.817 96.1464 134.148 97.9181C137.481 99.683 141.255 100.514 144.833 99.8561C146.618 99.5259 148.347 98.8108 149.877 97.6608C151.407 96.5131 152.733 94.9349 153.75 92.9355C153.994 92.4595 153.962 91.8926 153.694 91.4667C153.434 91.034 152.942 90.7516 152.418 90.7538C138.666 90.8108 125.311 94.1493 111.939 94.2449C111.573 94.2472 111.238 94.3907 110.993 94.6275C110.747 94.8621 110.593 95.19 110.57 95.527C110.545 95.8663 110.652 96.2125 110.864 96.4789C111.074 96.7476 111.385 96.9367 111.741 96.9891C116.768 97.7315 123.474 99.428 129.883 101.744C136.292 104.055 142.427 107.011 146.29 110.14C146.566 109.359 146.842 108.578 147.119 107.797C145.118 107.797 143.619 107.414 142.494 106.802C141.369 106.185 140.582 105.344 140.007 104.267C139.129 102.623 138.811 100.382 138.98 97.9068C139.143 95.4359 139.778 92.7556 140.66 90.2734C141.541 87.7889 142.671 85.4934 143.775 83.7923C144.325 82.9429 144.87 82.2414 145.346 81.7495C145.813 81.2553 146.235 80.9935 146.363 80.9639C146.689 80.8501 146.916 80.8364 147.089 80.8546C147.263 80.8774 147.404 80.9298 147.581 81.0482C147.932 81.2759 148.41 81.8725 148.822 82.8267C149.244 83.7717 149.608 85.0356 149.902 86.4748C150.198 87.9141 150.428 89.531 150.61 91.2071C150.974 94.5638 151.15 98.1527 151.334 101.143C151.428 102.641 151.523 103.987 151.651 105.11C151.715 105.672 151.787 106.18 151.879 106.638C151.974 107.1 152.074 107.503 152.275 107.94C152.525 108.485 153.065 108.867 153.65 108.933C154.236 109.008 154.853 108.767 155.242 108.28C156.155 107.132 156.914 105.688 157.665 104.044C158.41 102.402 159.129 100.564 159.858 98.6834C161.309 94.9304 162.823 90.9884 164.465 88.3581C164.991 87.5087 165.526 86.8028 166.036 86.2881C166.546 85.7712 167.018 85.4569 167.421 85.3066C167.216 85.3841 166.979 85.4205 166.763 85.4114C166.546 85.4023 166.36 85.3545 166.216 85.2953C165.927 85.1769 165.804 85.0517 165.733 84.9856C165.606 84.849 165.656 84.8808 165.711 84.9878C165.838 85.2133 166.064 85.737 166.307 86.402C166.801 87.741 167.407 89.6813 168.038 91.7058C168.669 93.7325 169.332 95.8482 169.958 97.6153C170.272 98.4989 170.577 99.2959 170.873 99.97C171.021 100.307 171.167 100.612 171.32 100.895C171.474 101.175 171.627 101.427 171.837 101.687C172.199 102.127 172.645 102.468 173.116 102.714C173.59 102.96 174.089 103.117 174.597 103.215C175.612 103.406 176.671 103.377 177.773 103.245C178.88 103.113 180.03 102.858 181.171 102.521C182.312 102.184 183.446 101.771 184.525 101.359C186.687 100.533 188.625 99.7104 190 99.4781C188.609 99.2959 186.427 99.4986 184.134 99.7673C182.986 99.9039 181.811 100.059 180.686 100.195C179.561 100.33 178.486 100.455 177.543 100.494C176.605 100.532 175.794 100.471 175.234 100.314C174.954 100.239 174.738 100.143 174.585 100.045C174.43 99.9472 174.339 99.8516 174.269 99.7468C174.271 99.7445 174.2 99.6306 174.121 99.4553C174.039 99.2799 173.938 99.0409 173.831 98.754C173.615 98.1824 173.369 97.4285 173.11 96.5746C172.588 94.8643 172.007 92.7465 171.424 90.6969C170.844 88.6451 170.265 86.6684 169.732 85.1654C169.464 84.4071 169.215 83.7786 168.924 83.2343C168.769 82.9565 168.623 82.6992 168.314 82.3827C168.152 82.2278 167.942 82.0411 167.571 81.8885C167.387 81.8156 167.159 81.7564 166.904 81.7473C166.649 81.7359 166.373 81.7792 166.134 81.8703C165.089 82.2597 164.201 82.9133 163.422 83.6921C162.643 84.4755 161.962 85.3955 161.329 86.4111C159.394 89.5378 157.884 93.6164 156.458 97.383C155.748 99.2641 155.067 101.061 154.397 102.587C153.735 104.108 153.063 105.36 152.487 106.096C153.475 106.207 154.463 106.321 155.452 106.435C155.452 106.433 155.452 106.433 155.449 106.428C155.447 106.424 155.442 106.415 155.438 106.403C155.429 106.378 155.415 106.344 155.401 106.299C155.374 106.21 155.34 106.082 155.306 105.925C155.238 105.613 155.169 105.189 155.103 104.688C154.971 103.686 154.857 102.379 154.739 100.904C154.502 97.9455 154.258 94.3065 153.81 90.8268C153.587 89.087 153.311 87.3858 152.956 85.8145C152.6 84.2431 152.168 82.8039 151.594 81.5674C151.013 80.3354 150.303 79.2651 149.219 78.5523C148.679 78.2016 148.041 77.9648 147.37 77.9078C146.697 77.8464 146.011 77.9602 145.352 78.2084C144.528 78.5272 143.887 79.0738 143.24 79.7547C142.6 80.4424 141.979 81.2872 141.368 82.2619C140.152 84.2112 138.988 86.6866 138.071 89.3738C137.158 92.0587 136.494 94.9532 136.326 97.7405C136.164 100.526 136.484 103.229 137.683 105.499C138.463 106.977 139.646 108.252 141.236 109.113C142.824 109.979 144.784 110.432 147.119 110.434C147.679 110.434 148.189 110.063 148.362 109.555C148.547 109.049 148.383 108.441 147.948 108.091C143.678 104.643 137.37 101.63 130.798 99.2253C124.227 96.8274 117.412 95.0671 112.152 94.2609C112.086 95.1741 112.02 96.0895 111.954 97.0027C125.761 96.948 139.153 93.6938 152.418 93.7508C151.974 93.022 151.53 92.2956 151.086 91.5669C150.239 93.1974 149.207 94.3816 148.062 95.231C146.916 96.0781 145.647 96.5974 144.283 96.8433C141.564 97.3352 138.437 96.6816 135.622 95.1604C132.806 93.6483 130.332 91.2868 128.876 88.5723C128.146 87.2151 127.665 85.7758 127.489 84.2979C127.315 82.8176 127.441 81.2987 127.947 79.741C127.189 80.0598 126.43 80.3786 125.672 80.6952C128.558 82.1458 132.428 85.0539 135.001 88.3833C136.293 90.0457 137.26 91.8037 137.698 93.482C138.135 95.1717 138.085 96.7408 137.389 98.3121C138.256 98.1048 139.123 97.8976 139.99 97.6904C138.457 96.4402 137.132 94.7095 135.967 92.6554C134.802 90.6036 133.801 88.2353 132.883 85.7644C131.037 80.8114 129.55 75.4734 127.454 71.2491C126.469 71.8252 125.483 72.4013 124.498 72.9775C124.732 73.3236 124.948 73.6834 125.144 74.0592C126.187 76.0495 126.733 78.4452 126.806 81.1074C126.879 83.7672 126.476 86.6799 125.653 89.6175C124.018 95.4906 120.669 101.457 116.392 105.595C113.261 108.644 109.684 110.694 106.193 111.233C104.444 111.507 102.716 111.418 101.01 110.912C99.3039 110.404 97.6117 109.48 95.9395 108.025C92.8151 105.294 91.0727 102.133 90.2832 98.7585C89.5005 95.3836 89.697 91.765 90.654 88.1965C92.5721 81.0094 97.6092 74.0137 103.942 70.4885C107.105 68.7236 110.568 67.8172 114.135 68.1452C117.697 68.4777 121.408 70.0444 124.952 73.3874C125.069 73.4968 125.186 73.6106 125.302 73.7245C127.096 75.4711 128.845 78.2813 129.412 80.9548C129.702 82.2916 129.705 83.5759 129.37 84.6895C129.029 85.8054 128.384 86.7755 127.215 87.6226C125.423 88.9047 123.985 89.2578 122.615 89.2555C121.246 89.2441 119.878 88.8159 118.421 88.2488C116.964 87.6909 115.446 86.9918 113.728 86.6389C112.869 86.4658 111.953 86.3861 111 86.4954C110.047 86.6047 109.065 86.9099 108.121 87.445C107.997 87.5133 107.875 87.5884 107.755 87.6659C106.537 88.4538 105.428 89.5993 104.322 91.018C103.22 92.4368 102.135 94.1333 101.077 96.0326C98.9619 99.8288 96.9536 104.433 95.2978 109.145C93.6436 113.857 92.3444 118.664 91.6767 122.877C91.3437 124.988 91.1672 126.949 91.1962 128.702C91.2308 130.458 91.4496 132.009 92.0347 133.348C92.1879 133.696 92.4013 134.031 92.6878 134.316C92.9718 134.6 93.3293 134.821 93.6923 134.949C94.0562 135.076 94.4156 135.115 94.7355 135.106C95.0571 135.097 95.344 135.042 95.6043 134.969C96.1235 134.821 96.5482 134.605 96.9189 134.391C97.2874 134.177 97.5996 133.958 97.833 133.79C100.209 132.091 102.023 130.032 103.313 127.769C104.604 125.503 105.373 123.041 105.715 120.527C106.397 115.492 105.408 110.247 103.457 105.618C101.495 100.988 98.5773 96.9572 95.1632 94.3702C93.4534 93.0813 91.6049 92.1521 89.6604 91.7627C87.7222 91.3687 85.6763 91.5554 83.7866 92.4618C81.3984 93.5981 79.6907 95.0807 78.7468 96.9025C78.2768 97.8065 78.0106 98.7789 77.9336 99.7582C77.8555 100.74 77.9614 101.726 78.205 102.698C78.6965 104.643 79.7217 106.542 81.0805 108.407C82.4424 110.272 84.1489 112.101 86.0618 113.857C89.8881 117.361 94.5415 120.568 98.9314 122.955C101.127 124.146 103.256 125.132 105.2 125.842C107.15 126.55 108.897 126.994 110.443 127.056C111.011 127.079 111.552 126.778 111.832 126.311C112.121 125.849 112.142 125.232 111.864 124.738C111.131 123.433 110.007 121.959 108.558 120.297C107.11 118.639 105.339 116.806 103.335 114.868C99.3276 110.994 94.3871 106.704 89.2812 102.653C84.1747 98.6013 78.908 94.7891 74.2364 91.8788C71.8995 90.4236 69.7117 89.1917 67.749 88.2649C65.7809 87.3403 64.055 86.7095 62.526 86.4863C62.1419 86.4294 61.762 86.5318 61.4673 86.7482C61.1711 86.9645 60.9632 87.2948 60.8987 87.6568C60.8318 88.0167 60.909 88.3991 61.1103 88.7043C61.3091 89.0117 61.6281 89.2417 62.0068 89.326C74.941 92.1657 90.0129 93.7963 103.153 90.2005C103.619 90.073 103.981 89.7086 104.107 89.2668C104.24 88.8296 104.135 88.324 103.812 87.9642C103.269 87.3562 102.558 86.944 101.805 86.7231C101.049 86.5 100.248 86.443 99.4087 86.4954C97.7322 86.6024 95.8725 87.1285 93.8216 87.9233C89.7319 89.5174 84.8879 92.2204 79.9677 95.1945C75.0522 98.1686 70.0738 101.414 65.8146 104.065C63.6861 105.39 61.7372 106.57 60.0791 107.485C58.4265 108.4 57.0444 109.056 56.1586 109.327C56.7092 109.664 57.2599 110.001 57.8107 110.341C57.7661 110.097 57.7583 109.689 57.8223 109.175C57.885 108.655 58.0141 108.029 58.2063 107.321C58.5898 105.902 59.2235 104.162 60.0395 102.227C61.6716 98.3532 64.0293 93.6916 66.5705 89.0254C71.6513 79.6932 77.4768 70.3154 79.736 66.9246C78.9877 66.5989 78.2396 66.2755 77.4916 65.9499C76.7173 69.2633 75.3291 75.0248 73.3349 81.3374C71.3434 87.6477 68.7389 94.509 65.5826 99.9677C63.6266 103.359 61.4534 106.201 59.1625 108.036C58.0177 108.954 56.8497 109.623 55.6653 110.017C54.4791 110.409 53.2769 110.534 52.0007 110.357C50.0011 110.07 48.4122 109.368 47.096 108.339C45.7824 107.307 44.7349 105.927 43.9164 104.249C42.2761 100.895 41.6093 96.3423 41.6392 91.4894C41.6635 86.6365 42.3654 81.4854 43.3387 76.9081C44.3095 72.3308 45.5568 68.3137 46.6284 65.7586C45.966 65.9203 45.3035 66.0819 44.6411 66.2436C46.1186 67.4847 47.3587 69.2655 48.3917 71.4631C49.4251 73.6584 50.2477 76.2568 50.9234 79.0761C51.5997 81.8953 52.1312 84.9331 52.6031 88.012C53.0722 91.0931 53.4939 94.213 53.9239 97.2099C54.5258 101.434 55.1254 105.408 56.1012 108.735C56.5915 110.402 57.1749 111.91 57.9378 113.224C58.7002 114.533 59.6562 115.665 60.9119 116.451C61.34 116.719 61.8968 116.779 62.3849 116.621C62.8745 116.469 63.2951 116.1 63.5187 115.567C63.8553 114.768 64.1149 113.818 64.3497 112.689C64.582 111.564 64.7796 110.266 64.9381 108.833C65.2547 105.971 65.4138 102.571 65.3241 99.0363C65.1807 93.4957 64.4597 87.6522 63.0113 83.0385C62.2799 80.7271 61.3785 78.714 60.1559 77.1541C59.5421 76.3775 58.8376 75.7103 58.007 75.2275C57.1808 74.7424 56.2191 74.46 55.2272 74.4646C54.5203 74.4646 53.843 74.6285 53.2024 74.8881C52.5607 75.15 51.9481 75.5098 51.3415 75.9425C50.1309 76.8078 48.9342 77.9739 47.6903 79.3653C45.2102 82.1481 42.5528 85.8555 39.7087 89.827C37.8402 92.4345 35.8936 95.1535 33.9381 97.8134C31.9801 100.473 30.0016 103.065 28.0443 105.397C26.0879 107.729 24.1504 109.799 22.2958 111.404C20.4435 113.012 18.6697 114.146 17.1105 114.656C17.6634 115 18.2166 115.342 18.7695 115.685C18.6524 114.838 18.6433 113.59 18.7585 112.103C18.8724 110.616 19.1054 108.886 19.4467 107.018C20.1292 103.281 21.2469 99.0022 22.693 94.9782C24.1359 90.9566 25.919 87.1854 27.8612 84.4937C28.8288 83.1478 29.8345 82.0775 30.8073 81.3716C31.7854 80.6588 32.6966 80.3172 33.566 80.2899C34.6552 80.258 35.5882 80.5449 36.5158 81.1415C37.4372 81.7381 38.331 82.6696 39.1554 83.8833C40.8112 86.3086 42.1516 89.8361 43.1413 93.6369C44.1357 97.4377 44.798 101.514 45.2047 105.078C45.6121 108.642 45.7651 111.712 45.7551 113.451C46.8204 113.303 47.8855 113.153 48.9506 113.005C47.3597 107.312 46.0946 100.289 45.7681 93.3318C45.4354 86.377 46.0612 79.4837 48.1132 74.0956C47.2959 74.4304 46.4786 74.7651 45.6613 75.1022C46.5148 75.503 47.2747 76.1611 47.9645 77.1221C48.6518 78.0763 49.2477 79.3242 49.7203 80.7908C50.6717 83.7194 51.1178 87.4906 51.137 91.3779C51.1597 95.2652 50.7662 99.2777 50.1161 102.723C49.7918 104.447 49.4033 106.03 48.979 107.376C48.5571 108.722 48.0923 109.833 47.6619 110.584C48.6625 110.452 49.6629 110.322 50.6635 110.19C50.3877 109.915 50.0518 109.439 49.723 108.797C49.3926 108.152 49.0653 107.344 48.7568 106.415C47.9133 103.88 47.2146 100.466 46.5865 96.8137C45.9564 93.1587 45.3887 89.2554 44.7604 85.6619C44.1284 82.0638 43.4507 78.7914 42.5289 76.2682C42.0598 75.0043 41.5426 73.9181 40.8077 73.0208C40.4377 72.5745 40.0009 72.1691 39.455 71.8685C38.9146 71.5656 38.2524 71.3903 37.5945 71.4199C36.8567 71.4449 36.1698 71.6909 35.591 72.0393C35.008 72.39 34.5125 72.8409 34.0588 73.3533C33.1568 74.3826 32.4005 75.6806 31.68 77.1904C30.251 80.2055 28.9985 84.0975 27.8549 88.1464C26.7144 92.1909 25.6942 96.381 24.7899 99.9062C24.3381 101.666 23.915 103.263 23.5249 104.577C23.1377 105.886 22.7718 106.932 22.4903 107.515C23.3969 107.726 24.3037 107.938 25.2103 108.152C25.1007 98.984 25.2938 89.0482 22.8895 79.9459C22.7533 79.4313 22.2535 79.0852 21.7557 79.1375C21.2562 79.1717 20.8233 79.5975 20.7805 80.0985C20.6954 81.0937 20.4469 83.4735 20.0773 86.4726C19.7075 89.4718 19.216 93.0995 18.6419 96.6156C18.0681 100.129 17.4097 103.536 16.7131 106.078C16.3663 107.346 16.0069 108.4 15.6619 109.122C15.4907 109.48 15.3219 109.755 15.1823 109.924C15.1131 110.008 15.0523 110.063 15.0104 110.095C14.968 110.127 14.948 110.131 14.9498 110.133C14.7979 110.165 14.6834 110.158 14.5574 110.12C14.4329 110.079 14.293 109.997 14.1409 109.851C13.8355 109.564 13.5076 109.031 13.2189 108.325C12.6338 106.913 12.1834 104.841 11.8429 102.662C11.5009 100.478 11.2622 98.1801 11.0696 96.274C10.8755 94.3611 10.733 92.8581 10.5638 92.184C10.4866 91.8766 9.9364 92.0086 10.0061 92.3184Z" fill="black"/>
</svg>